<svg xmlns="http://www.w3.org/2000/svg" width="32" height="32" viewBox="80 117 652 576" version="1.0"><defs><clipPath id="c"><path d="M 84 120.691406 L 728.648438 120.691406 L 728.648438 689.191406 L 84 689.191406 Z" clip-rule="nonzero"/></clipPath></defs><g clip-path="url(#c)"><path fill="#4910bc" d="M 442.777344 513.082031 C 461.453125 519.8125 481.597656 523.472656 502.585938 523.472656 C 551.394531 523.472656 595.578125 503.707031 627.511719 471.769531 L 627.511719 471.714844 C 659.46875 439.746094 679.257812 395.566406 679.257812 346.769531 C 679.257812 300.507812 661.457031 258.382812 632.359375 226.894531 C 630.757812 225.203125 629.144531 223.546875 627.5 221.898438 L 627.445312 221.84375 C 625.242188 219.640625 622.996094 217.472656 620.714844 215.347656 C 589.449219 187.207031 548.035156 170.078125 502.585938 170.078125 C 453.800781 170.078125 409.617188 189.863281 377.652344 221.832031 C 345.683594 253.789062 325.894531 297.992188 325.894531 346.769531 C 325.894531 395.554688 345.683594 439.746094 377.652344 471.714844 C 385.191406 479.257812 393.421875 486.121094 402.222656 492.214844 C 394.679688 497.085938 386.9375 501.894531 379.007812 506.632812 C 372.222656 501.382812 365.769531 495.707031 359.71875 489.644531 C 323.167969 453.09375 300.535156 402.574219 300.535156 346.769531 C 300.535156 291.007812 323.167969 240.464844 359.71875 203.914062 C 389.042969 174.59375 427.359375 154.238281 470.164062 147.320312 C 461.664062 146.472656 453.042969 146.039062 444.324219 146.039062 C 372.8125 146.039062 308.054688 175.039062 261.191406 221.898438 L 261.148438 221.898438 C 214.308594 268.71875 185.34375 333.488281 185.34375 405.011719 C 185.34375 467.789062 207.65625 525.351562 244.785156 570.144531 C 235.917969 573.191406 227.289062 575.894531 218.921875 578.265625 C 197.644531 550.625 181.328125 518.964844 171.316406 484.640625 C 148.582031 506.097656 131.183594 526.808594 120.539062 545.21875 C 109.75 563.894531 106.234375 579.242188 111.816406 589 L 111.839844 588.988281 C 121.171875 605.148438 153.820312 607.429688 198.980469 598.050781 C 248.421875 587.785156 310.921875 563.003906 374.671875 526.207031 L 374.726562 526.207031 C 410.964844 505.285156 443.722656 482.683594 471.476562 460.113281 C 499.929688 436.964844 523.019531 413.863281 539.039062 392.695312 L 559.25 407.957031 C 542.105469 430.605469 517.558594 455.199219 487.425781 479.714844 C 473.6875 490.878906 458.75 502.070312 442.777344 513.082031 M 275.640625 601.5 C 320.957031 640.433594 379.910156 663.980469 444.335938 663.980469 C 515.867188 663.980469 580.625 635.015625 627.445312 588.175781 L 627.5 588.121094 C 674.339844 541.300781 703.304688 476.53125 703.304688 405.011719 C 703.304688 396.277344 702.871094 387.644531 702.023438 379.136719 C 695.128906 421.972656 674.773438 460.304688 645.441406 489.636719 L 645.417969 489.613281 C 608.847656 526.1875 558.324219 548.820312 502.597656 548.820312 C 472.109375 548.820312 443.1875 542.058594 417.261719 529.957031 C 407.582031 536.097656 397.59375 542.148438 387.339844 548.066406 L 387.351562 548.085938 C 348.988281 570.234375 310.945312 588.207031 275.640625 601.5 Z M 583.453125 310.929688 C 601.707031 310.929688 616.5 325.722656 616.5 343.976562 C 616.5 362.230469 601.707031 377.023438 583.453125 377.023438 C 565.199219 377.023438 550.40625 362.230469 550.40625 343.976562 C 550.40625 325.722656 565.199219 310.929688 583.453125 310.929688 Z M 444.335938 120.691406 C 518.972656 120.691406 586.96875 149.511719 637.734375 196.648438 C 640.359375 199.007812 642.917969 201.433594 645.410156 203.925781 L 645.429688 203.902344 C 648.445312 206.917969 651.371094 210.03125 654.183594 213.234375 C 700.445312 263.824219 728.664062 331.164062 728.664062 405.011719 C 728.664062 483.4375 696.84375 554.527344 645.386719 606.003906 L 645.339844 606.050781 C 593.863281 657.507812 522.773438 689.328125 444.34375 689.328125 C 368.386719 689.328125 299.378906 659.53125 248.378906 611.011719 C 232.839844 615.984375 218.011719 619.941406 204.128906 622.824219 C 147.890625 634.503906 105.390625 628.363281 89.960938 601.667969 L 89.960938 601.613281 C 79.40625 583.292969 83.21875 559.265625 98.660156 532.535156 C 112.128906 509.234375 134.875 483.039062 164.652344 456.453125 C 161.59375 439.769531 159.992188 422.574219 159.992188 405 C 159.992188 326.558594 191.828125 255.457031 243.304688 203.980469 L 243.28125 203.957031 C 294.726562 152.523438 365.816406 120.691406 444.335938 120.691406 Z M 444.335938 120.691406 " fill-opacity="1" fill-rule="nonzero"/></g></svg>
