<svg xmlns="http://www.w3.org/2000/svg" xmlns:xlink="http://www.w3.org/1999/xlink" width="1035" zoomAndPan="magnify" viewBox="0 0 776.25 587.249981" height="783" preserveAspectRatio="xMidYMid meet" version="1.0"><defs><g/><clipPath id="42f663c842"><path d="M 0.121094 0 L 775.378906 0 L 775.378906 586.5 L 0.121094 586.5 Z M 0.121094 0 " clip-rule="nonzero"/></clipPath><clipPath id="6d68cbe163"><rect x="0" width="603" y="0" height="169"/></clipPath><clipPath id="b3356ec87d"><rect x="0" width="310" y="0" height="101"/></clipPath><clipPath id="f267ca69ab"><path d="M 193 0 L 584.875 0 L 584.875 345.308594 L 193 345.308594 Z M 193 0 " clip-rule="nonzero"/></clipPath></defs><g clip-path="url(#42f663c842)"><path fill="#ffffff" d="M 0.121094 0 L 775.378906 0 L 775.378906 586.5 L 0.121094 586.5 Z M 0.121094 0 " fill-opacity="1" fill-rule="nonzero"/></g><g transform="matrix(1, 0, 0, 1, 85, 335)"><g clip-path="url(#6d68cbe163)"><g fill="#000000" fill-opacity="1"><g transform="translate(2.917012, 123.25949)"><g><path d="M 3.390625 -33.828125 C 3.390625 -40.859375 4.820312 -47 7.6875 -52.25 C 10.5625 -57.507812 14.566406 -61.550781 19.703125 -64.375 C 24.835938 -67.207031 30.71875 -68.625 37.34375 -68.625 C 45.832031 -68.625 52.925781 -66.398438 58.625 -61.953125 C 64.320312 -57.515625 68.0625 -51.253906 69.84375 -43.171875 L 47.765625 -43.171875 C 45.910156 -48.335938 42.316406 -50.921875 36.984375 -50.921875 C 33.179688 -50.921875 30.148438 -49.445312 27.890625 -46.5 C 25.628906 -43.550781 24.5 -39.328125 24.5 -33.828125 C 24.5 -28.328125 25.628906 -24.101562 27.890625 -21.15625 C 30.148438 -18.207031 33.179688 -16.734375 36.984375 -16.734375 C 42.316406 -16.734375 45.910156 -19.320312 47.765625 -24.5 L 69.84375 -24.5 C 68.0625 -16.570312 64.300781 -10.34375 58.5625 -5.8125 C 52.820312 -1.289062 45.75 0.96875 37.34375 0.96875 C 30.71875 0.96875 24.835938 -0.441406 19.703125 -3.265625 C 14.566406 -6.097656 10.5625 -10.140625 7.6875 -15.390625 C 4.820312 -20.648438 3.390625 -26.796875 3.390625 -33.828125 Z M 3.390625 -33.828125 "/></g></g></g><g fill="#000000" fill-opacity="1"><g transform="translate(76.274017, 123.25949)"><g><path d="M 38.3125 0.96875 C 31.6875 0.96875 25.722656 -0.441406 20.421875 -3.265625 C 15.128906 -6.097656 10.96875 -10.140625 7.9375 -15.390625 C 4.90625 -20.648438 3.390625 -26.796875 3.390625 -33.828125 C 3.390625 -40.773438 4.925781 -46.894531 8 -52.1875 C 11.070312 -57.488281 15.273438 -61.550781 20.609375 -64.375 C 25.941406 -67.207031 31.925781 -68.625 38.5625 -68.625 C 45.1875 -68.625 51.164062 -67.207031 56.5 -64.375 C 61.832031 -61.550781 66.035156 -57.488281 69.109375 -52.1875 C 72.179688 -46.894531 73.71875 -40.773438 73.71875 -33.828125 C 73.71875 -26.878906 72.160156 -20.753906 69.046875 -15.453125 C 65.941406 -10.160156 61.695312 -6.097656 56.3125 -3.265625 C 50.9375 -0.441406 44.9375 0.96875 38.3125 0.96875 Z M 38.3125 -16.96875 C 42.269531 -16.96875 45.644531 -18.421875 48.4375 -21.328125 C 51.226562 -24.242188 52.625 -28.410156 52.625 -33.828125 C 52.625 -39.242188 51.269531 -43.40625 48.5625 -46.3125 C 45.851562 -49.226562 42.519531 -50.6875 38.5625 -50.6875 C 34.519531 -50.6875 31.164062 -49.25 28.5 -46.375 C 25.832031 -43.507812 24.5 -39.328125 24.5 -33.828125 C 24.5 -28.410156 25.8125 -24.242188 28.4375 -21.328125 C 31.0625 -18.421875 34.351562 -16.96875 38.3125 -16.96875 Z M 38.3125 -16.96875 "/></g></g></g><g fill="#000000" fill-opacity="1"><g transform="translate(153.511061, 123.25949)"><g><path d="M 28.25 -56.375 C 30.675781 -60.09375 33.707031 -63.023438 37.34375 -65.171875 C 40.976562 -67.316406 45.019531 -68.390625 49.46875 -68.390625 L 49.46875 -46.4375 L 43.765625 -46.4375 C 38.597656 -46.4375 34.71875 -45.320312 32.125 -43.09375 C 29.539062 -40.875 28.25 -36.976562 28.25 -31.40625 L 28.25 0 L 7.515625 0 L 7.515625 -67.65625 L 28.25 -67.65625 Z M 28.25 -56.375 "/></g></g></g><g fill="#000000" fill-opacity="1"><g transform="translate(205.406586, 123.25949)"><g><path d="M 71.296875 -34.921875 C 71.296875 -32.984375 71.175781 -30.960938 70.9375 -28.859375 L 24 -28.859375 C 24.332031 -24.648438 25.6875 -21.4375 28.0625 -19.21875 C 30.445312 -17 33.378906 -15.890625 36.859375 -15.890625 C 42.035156 -15.890625 45.632812 -18.070312 47.65625 -22.4375 L 69.71875 -22.4375 C 68.582031 -17.988281 66.539062 -13.984375 63.59375 -10.421875 C 60.644531 -6.867188 56.945312 -4.082031 52.5 -2.0625 C 48.050781 -0.0390625 43.082031 0.96875 37.59375 0.96875 C 30.957031 0.96875 25.050781 -0.441406 19.875 -3.265625 C 14.707031 -6.097656 10.664062 -10.140625 7.75 -15.390625 C 4.84375 -20.648438 3.390625 -26.796875 3.390625 -33.828125 C 3.390625 -40.859375 4.820312 -47 7.6875 -52.25 C 10.5625 -57.507812 14.585938 -61.550781 19.765625 -64.375 C 24.941406 -67.207031 30.882812 -68.625 37.59375 -68.625 C 44.132812 -68.625 49.953125 -67.25 55.046875 -64.5 C 60.140625 -61.75 64.117188 -57.828125 66.984375 -52.734375 C 69.859375 -47.648438 71.296875 -41.710938 71.296875 -34.921875 Z M 50.078125 -40.375 C 50.078125 -43.9375 48.863281 -46.765625 46.4375 -48.859375 C 44.007812 -50.960938 40.976562 -52.015625 37.34375 -52.015625 C 33.863281 -52.015625 30.929688 -51.003906 28.546875 -48.984375 C 26.171875 -46.960938 24.695312 -44.09375 24.125 -40.375 Z M 50.078125 -40.375 "/></g></g></g><g fill="#000000" fill-opacity="1"><g transform="translate(280.097323, 123.25949)"><g/></g></g><g fill="#000000" fill-opacity="1"><g transform="translate(305.802575, 123.25949)"><g><path d="M 38.3125 0.96875 C 31.6875 0.96875 25.722656 -0.441406 20.421875 -3.265625 C 15.128906 -6.097656 10.96875 -10.140625 7.9375 -15.390625 C 4.90625 -20.648438 3.390625 -26.796875 3.390625 -33.828125 C 3.390625 -40.773438 4.925781 -46.894531 8 -52.1875 C 11.070312 -57.488281 15.273438 -61.550781 20.609375 -64.375 C 25.941406 -67.207031 31.925781 -68.625 38.5625 -68.625 C 45.1875 -68.625 51.164062 -67.207031 56.5 -64.375 C 61.832031 -61.550781 66.035156 -57.488281 69.109375 -52.1875 C 72.179688 -46.894531 73.71875 -40.773438 73.71875 -33.828125 C 73.71875 -26.878906 72.160156 -20.753906 69.046875 -15.453125 C 65.941406 -10.160156 61.695312 -6.097656 56.3125 -3.265625 C 50.9375 -0.441406 44.9375 0.96875 38.3125 0.96875 Z M 38.3125 -16.96875 C 42.269531 -16.96875 45.644531 -18.421875 48.4375 -21.328125 C 51.226562 -24.242188 52.625 -28.410156 52.625 -33.828125 C 52.625 -39.242188 51.269531 -43.40625 48.5625 -46.3125 C 45.851562 -49.226562 42.519531 -50.6875 38.5625 -50.6875 C 34.519531 -50.6875 31.164062 -49.25 28.5 -46.375 C 25.832031 -43.507812 24.5 -39.328125 24.5 -33.828125 C 24.5 -28.410156 25.8125 -24.242188 28.4375 -21.328125 C 31.0625 -18.421875 34.351562 -16.96875 38.3125 -16.96875 Z M 38.3125 -16.96875 "/></g></g></g><g fill="#000000" fill-opacity="1"><g transform="translate(383.039619, 123.25949)"><g><path d="M 28.25 -56.375 C 30.675781 -60.09375 33.707031 -63.023438 37.34375 -65.171875 C 40.976562 -67.316406 45.019531 -68.390625 49.46875 -68.390625 L 49.46875 -46.4375 L 43.765625 -46.4375 C 38.597656 -46.4375 34.71875 -45.320312 32.125 -43.09375 C 29.539062 -40.875 28.25 -36.976562 28.25 -31.40625 L 28.25 0 L 7.515625 0 L 7.515625 -67.65625 L 28.25 -67.65625 Z M 28.25 -56.375 "/></g></g></g><g fill="#000000" fill-opacity="1"><g transform="translate(434.935143, 123.25949)"><g><path d="M 28.25 -58.078125 C 30.1875 -61.234375 32.972656 -63.78125 36.609375 -65.71875 C 40.253906 -67.65625 44.421875 -68.625 49.109375 -68.625 C 54.679688 -68.625 59.726562 -67.207031 64.25 -64.375 C 68.78125 -61.550781 72.359375 -57.507812 74.984375 -52.25 C 77.617188 -47 78.9375 -40.898438 78.9375 -33.953125 C 78.9375 -26.992188 77.617188 -20.867188 74.984375 -15.578125 C 72.359375 -10.285156 68.78125 -6.203125 64.25 -3.328125 C 59.726562 -0.460938 54.679688 0.96875 49.109375 0.96875 C 44.335938 0.96875 40.171875 0.0195312 36.609375 -1.875 C 33.054688 -3.78125 30.269531 -6.304688 28.25 -9.453125 L 28.25 0 L 7.515625 0 L 7.515625 -89.71875 L 28.25 -89.71875 Z M 57.84375 -33.953125 C 57.84375 -39.117188 56.40625 -43.175781 53.53125 -46.125 C 50.664062 -49.082031 47.128906 -50.5625 42.921875 -50.5625 C 38.796875 -50.5625 35.296875 -49.066406 32.421875 -46.078125 C 29.554688 -43.085938 28.125 -39.003906 28.125 -33.828125 C 28.125 -28.648438 29.554688 -24.566406 32.421875 -21.578125 C 35.296875 -18.585938 38.796875 -17.09375 42.921875 -17.09375 C 47.046875 -17.09375 50.5625 -18.609375 53.46875 -21.640625 C 56.382812 -24.671875 57.84375 -28.773438 57.84375 -33.953125 Z M 57.84375 -33.953125 "/></g></g></g><g fill="#000000" fill-opacity="1"><g transform="translate(517.264714, 123.25949)"><g><path d="M 17.9375 -74.6875 C 14.300781 -74.6875 11.332031 -75.753906 9.03125 -77.890625 C 6.726562 -80.035156 5.578125 -82.6875 5.578125 -85.84375 C 5.578125 -89.070312 6.726562 -91.757812 9.03125 -93.90625 C 11.332031 -96.050781 14.300781 -97.125 17.9375 -97.125 C 21.5 -97.125 24.429688 -96.050781 26.734375 -93.90625 C 29.035156 -91.757812 30.1875 -89.070312 30.1875 -85.84375 C 30.1875 -82.6875 29.035156 -80.035156 26.734375 -77.890625 C 24.429688 -75.753906 21.5 -74.6875 17.9375 -74.6875 Z M 28.25 -67.65625 L 28.25 0 L 7.515625 0 L 7.515625 -67.65625 Z M 28.25 -67.65625 "/></g></g></g><g fill="#000000" fill-opacity="1"><g transform="translate(553.033818, 123.25949)"><g><path d="M 45.21875 -17.578125 L 45.21875 0 L 34.671875 0 C 27.160156 0 21.300781 -1.835938 17.09375 -5.515625 C 12.894531 -9.191406 10.796875 -15.191406 10.796875 -23.515625 L 10.796875 -50.4375 L 2.546875 -50.4375 L 2.546875 -67.65625 L 10.796875 -67.65625 L 10.796875 -84.140625 L 31.53125 -84.140625 L 31.53125 -67.65625 L 45.109375 -67.65625 L 45.109375 -50.4375 L 31.53125 -50.4375 L 31.53125 -23.28125 C 31.53125 -21.257812 32.015625 -19.800781 32.984375 -18.90625 C 33.953125 -18.019531 35.566406 -17.578125 37.828125 -17.578125 Z M 45.21875 -17.578125 "/></g></g></g></g></g><g transform="matrix(1, 0, 0, 1, 233, 456)"><g clip-path="url(#b3356ec87d)"><g fill="#000000" fill-opacity="1"><g transform="translate(2.209824, 72.998439)"><g><path d="M 19.03125 0.625 C 16.082031 0.625 13.4375 0.125 11.09375 -0.875 C 8.75 -1.882812 6.898438 -3.289062 5.546875 -5.09375 C 4.191406 -6.894531 3.441406 -8.960938 3.296875 -11.296875 L 9.90625 -11.296875 C 10.082031 -9.378906 10.976562 -7.8125 12.59375 -6.59375 C 14.21875 -5.382812 16.335938 -4.78125 18.953125 -4.78125 C 21.390625 -4.78125 23.304688 -5.316406 24.703125 -6.390625 C 26.109375 -7.460938 26.8125 -8.816406 26.8125 -10.453125 C 26.8125 -12.140625 26.0625 -13.390625 24.5625 -14.203125 C 23.070312 -15.023438 20.757812 -15.835938 17.625 -16.640625 C 14.769531 -17.390625 12.441406 -18.148438 10.640625 -18.921875 C 8.835938 -19.691406 7.289062 -20.835938 6 -22.359375 C 4.71875 -23.878906 4.078125 -25.878906 4.078125 -28.359375 C 4.078125 -30.328125 4.660156 -32.128906 5.828125 -33.765625 C 6.992188 -35.398438 8.65625 -36.695312 10.8125 -37.65625 C 12.96875 -38.625 15.425781 -39.109375 18.1875 -39.109375 C 22.445312 -39.109375 25.882812 -38.03125 28.5 -35.875 C 31.125 -33.71875 32.53125 -30.769531 32.71875 -27.03125 L 26.328125 -27.03125 C 26.179688 -29.039062 25.367188 -30.65625 23.890625 -31.875 C 22.421875 -33.09375 20.445312 -33.703125 17.96875 -33.703125 C 15.675781 -33.703125 13.847656 -33.207031 12.484375 -32.21875 C 11.128906 -31.238281 10.453125 -29.953125 10.453125 -28.359375 C 10.453125 -27.097656 10.863281 -26.054688 11.6875 -25.234375 C 12.507812 -24.421875 13.539062 -23.765625 14.78125 -23.265625 C 16.019531 -22.773438 17.738281 -22.226562 19.9375 -21.625 C 22.695312 -20.875 24.941406 -20.132812 26.671875 -19.40625 C 28.410156 -18.6875 29.898438 -17.597656 31.140625 -16.140625 C 32.378906 -14.691406 33.019531 -12.796875 33.0625 -10.453125 C 33.0625 -8.347656 32.476562 -6.453125 31.3125 -4.765625 C 30.144531 -3.085938 28.492188 -1.769531 26.359375 -0.8125 C 24.234375 0.144531 21.789062 0.625 19.03125 0.625 Z M 19.03125 0.625 "/></g></g></g><g fill="#000000" fill-opacity="1"><g transform="translate(38.841535, 72.998439)"><g><path d="M 22.1875 0.625 C 18.582031 0.625 15.316406 -0.191406 12.390625 -1.828125 C 9.460938 -3.460938 7.164062 -5.789062 5.5 -8.8125 C 3.84375 -11.832031 3.015625 -15.332031 3.015625 -19.3125 C 3.015625 -23.238281 3.867188 -26.710938 5.578125 -29.734375 C 7.285156 -32.753906 9.613281 -35.070312 12.5625 -36.6875 C 15.507812 -38.300781 18.8125 -39.109375 22.46875 -39.109375 C 26.113281 -39.109375 29.410156 -38.300781 32.359375 -36.6875 C 35.304688 -35.070312 37.632812 -32.765625 39.34375 -29.765625 C 41.050781 -26.765625 41.90625 -23.28125 41.90625 -19.3125 C 41.90625 -15.332031 41.023438 -11.832031 39.265625 -8.8125 C 37.515625 -5.789062 35.140625 -3.460938 32.140625 -1.828125 C 29.148438 -0.191406 25.832031 0.625 22.1875 0.625 Z M 22.1875 -4.984375 C 24.476562 -4.984375 26.628906 -5.519531 28.640625 -6.59375 C 30.648438 -7.675781 32.273438 -9.289062 33.515625 -11.4375 C 34.753906 -13.59375 35.375 -16.21875 35.375 -19.3125 C 35.375 -22.394531 34.765625 -25.007812 33.546875 -27.15625 C 32.335938 -29.3125 30.75 -30.914062 28.78125 -31.96875 C 26.8125 -33.03125 24.679688 -33.5625 22.390625 -33.5625 C 20.054688 -33.5625 17.914062 -33.03125 15.96875 -31.96875 C 14.03125 -30.914062 12.472656 -29.3125 11.296875 -27.15625 C 10.128906 -25.007812 9.546875 -22.394531 9.546875 -19.3125 C 9.546875 -16.175781 10.117188 -13.53125 11.265625 -11.375 C 12.410156 -9.21875 13.941406 -7.613281 15.859375 -6.5625 C 17.785156 -5.507812 19.894531 -4.984375 22.1875 -4.984375 Z M 22.1875 -4.984375 "/></g></g></g><g fill="#000000" fill-opacity="1"><g transform="translate(83.75396, 72.998439)"><g><path d="M 21.0625 -33.203125 L 12.984375 -33.203125 L 12.984375 0 L 6.59375 0 L 6.59375 -33.203125 L 1.609375 -33.203125 L 1.609375 -38.46875 L 6.59375 -38.46875 L 6.59375 -41.203125 C 6.59375 -45.515625 7.703125 -48.664062 9.921875 -50.65625 C 12.148438 -52.644531 15.722656 -53.640625 20.640625 -53.640625 L 20.640625 -48.296875 C 17.828125 -48.296875 15.847656 -47.742188 14.703125 -46.640625 C 13.554688 -45.546875 12.984375 -43.734375 12.984375 -41.203125 L 12.984375 -38.46875 L 21.0625 -38.46875 Z M 21.0625 -33.203125 "/></g></g></g><g fill="#000000" fill-opacity="1"><g transform="translate(106.841766, 72.998439)"><g><path d="M 13.203125 -33.203125 L 13.203125 -10.53125 C 13.203125 -8.65625 13.597656 -7.332031 14.390625 -6.5625 C 15.179688 -5.789062 16.5625 -5.40625 18.53125 -5.40625 L 23.234375 -5.40625 L 23.234375 0 L 17.484375 0 C 13.921875 0 11.25 -0.816406 9.46875 -2.453125 C 7.695312 -4.097656 6.8125 -6.789062 6.8125 -10.53125 L 6.8125 -33.203125 L 1.828125 -33.203125 L 1.828125 -38.46875 L 6.8125 -38.46875 L 6.8125 -48.15625 L 13.203125 -48.15625 L 13.203125 -38.46875 L 23.234375 -38.46875 L 23.234375 -33.203125 Z M 13.203125 -33.203125 "/></g></g></g><g fill="#000000" fill-opacity="1"><g transform="translate(132.385725, 72.998439)"><g><path d="M 56.65625 -38.46875 L 44.65625 0 L 38.046875 0 L 28.78125 -30.53125 L 19.515625 0 L 12.921875 0 L 0.84375 -38.46875 L 7.375 -38.46875 L 16.21875 -6.171875 L 25.765625 -38.46875 L 32.296875 -38.46875 L 41.625 -6.109375 L 50.328125 -38.46875 Z M 56.65625 -38.46875 "/></g></g></g><g fill="#000000" fill-opacity="1"><g transform="translate(189.929752, 72.998439)"><g><path d="M 3.015625 -19.375 C 3.015625 -23.300781 3.8125 -26.75 5.40625 -29.71875 C 7 -32.695312 9.1875 -35.003906 11.96875 -36.640625 C 14.75 -38.285156 17.847656 -39.109375 21.265625 -39.109375 C 24.640625 -39.109375 27.566406 -38.378906 30.046875 -36.921875 C 32.523438 -35.472656 34.375 -33.648438 35.59375 -31.453125 L 35.59375 -38.46875 L 42.046875 -38.46875 L 42.046875 0 L 35.59375 0 L 35.59375 -7.15625 C 34.332031 -4.914062 32.445312 -3.054688 29.9375 -1.578125 C 27.4375 -0.109375 24.523438 0.625 21.203125 0.625 C 17.785156 0.625 14.695312 -0.210938 11.9375 -1.890625 C 9.175781 -3.578125 7 -5.941406 5.40625 -8.984375 C 3.8125 -12.023438 3.015625 -15.488281 3.015625 -19.375 Z M 35.59375 -19.3125 C 35.59375 -22.207031 35.003906 -24.726562 33.828125 -26.875 C 32.660156 -29.03125 31.082031 -30.679688 29.09375 -31.828125 C 27.101562 -32.984375 24.914062 -33.5625 22.53125 -33.5625 C 20.144531 -33.5625 17.96875 -33 16 -31.875 C 14.039062 -30.75 12.472656 -29.109375 11.296875 -26.953125 C 10.128906 -24.804688 9.546875 -22.28125 9.546875 -19.375 C 9.546875 -16.425781 10.128906 -13.863281 11.296875 -11.6875 C 12.472656 -9.507812 14.039062 -7.847656 16 -6.703125 C 17.96875 -5.554688 20.144531 -4.984375 22.53125 -4.984375 C 24.914062 -4.984375 27.101562 -5.554688 29.09375 -6.703125 C 31.082031 -7.847656 32.660156 -9.507812 33.828125 -11.6875 C 35.003906 -13.863281 35.59375 -16.40625 35.59375 -19.3125 Z M 35.59375 -19.3125 "/></g></g></g><g fill="#000000" fill-opacity="1"><g transform="translate(237.368507, 72.998439)"><g><path d="M 11.796875 -32.21875 C 12.921875 -34.414062 14.523438 -36.125 16.609375 -37.34375 C 18.691406 -38.5625 21.226562 -39.171875 24.21875 -39.171875 L 24.21875 -32.578125 L 22.53125 -32.578125 C 15.375 -32.578125 11.796875 -28.691406 11.796875 -20.921875 L 11.796875 0 L 5.40625 0 L 5.40625 -38.46875 L 11.796875 -38.46875 Z M 11.796875 -32.21875 "/></g></g></g><g fill="#000000" fill-opacity="1"><g transform="translate(263.544014, 72.998439)"><g><path d="M 40.5 -20.703125 C 40.5 -19.492188 40.429688 -18.207031 40.296875 -16.84375 L 9.546875 -16.84375 C 9.785156 -13.050781 11.082031 -10.09375 13.4375 -7.96875 C 15.800781 -5.84375 18.671875 -4.78125 22.046875 -4.78125 C 24.804688 -4.78125 27.109375 -5.421875 28.953125 -6.703125 C 30.804688 -7.992188 32.109375 -9.710938 32.859375 -11.859375 L 39.734375 -11.859375 C 38.703125 -8.160156 36.640625 -5.15625 33.546875 -2.84375 C 30.460938 -0.53125 26.628906 0.625 22.046875 0.625 C 18.390625 0.625 15.125 -0.191406 12.25 -1.828125 C 9.375 -3.460938 7.113281 -5.789062 5.46875 -8.8125 C 3.832031 -11.832031 3.015625 -15.332031 3.015625 -19.3125 C 3.015625 -23.28125 3.8125 -26.765625 5.40625 -29.765625 C 7 -32.765625 9.234375 -35.070312 12.109375 -36.6875 C 14.984375 -38.300781 18.296875 -39.109375 22.046875 -39.109375 C 25.691406 -39.109375 28.914062 -38.3125 31.71875 -36.71875 C 34.53125 -35.125 36.695312 -32.929688 38.21875 -30.140625 C 39.738281 -27.359375 40.5 -24.210938 40.5 -20.703125 Z M 33.90625 -22.046875 C 33.90625 -24.472656 33.363281 -26.5625 32.28125 -28.3125 C 31.207031 -30.070312 29.742188 -31.410156 27.890625 -32.328125 C 26.046875 -33.242188 24.003906 -33.703125 21.765625 -33.703125 C 18.535156 -33.703125 15.785156 -32.671875 13.515625 -30.609375 C 11.242188 -28.546875 9.945312 -25.691406 9.625 -22.046875 Z M 33.90625 -22.046875 "/></g></g></g></g></g><g clip-path="url(#f267ca69ab)"><path fill="#4910bc" d="M 411.171875 238.527344 C 422.527344 242.617188 434.769531 244.839844 447.53125 244.839844 C 477.199219 244.839844 504.054688 232.824219 523.46875 213.414062 L 523.46875 213.378906 C 542.894531 193.945312 554.921875 167.089844 554.921875 137.425781 C 554.921875 109.304688 544.105469 83.699219 526.417969 64.558594 C 525.441406 63.53125 524.460938 62.523438 523.460938 61.523438 L 523.429688 61.488281 C 522.089844 60.148438 520.722656 58.832031 519.335938 57.539062 C 500.332031 40.433594 475.15625 30.019531 447.53125 30.019531 C 417.875 30.019531 391.015625 42.050781 371.585938 61.480469 C 352.152344 80.910156 340.125 107.777344 340.125 137.425781 C 340.125 167.082031 352.152344 193.945312 371.585938 213.378906 C 376.167969 217.964844 381.171875 222.136719 386.519531 225.839844 C 381.9375 228.800781 377.230469 231.722656 372.410156 234.605469 C 368.285156 231.414062 364.363281 227.964844 360.683594 224.277344 C 338.46875 202.0625 324.707031 171.351562 324.707031 137.425781 C 324.707031 103.53125 338.46875 72.808594 360.683594 50.589844 C 378.507812 32.765625 401.800781 20.394531 427.820312 16.1875 C 422.65625 15.671875 417.414062 15.410156 412.113281 15.410156 C 368.644531 15.410156 329.277344 33.035156 300.792969 61.523438 L 300.765625 61.523438 C 272.292969 89.980469 254.683594 129.355469 254.683594 172.832031 C 254.683594 210.992188 268.25 245.984375 290.820312 273.210938 C 285.429688 275.066406 280.183594 276.707031 275.097656 278.148438 C 262.164062 261.347656 252.242188 242.101562 246.160156 221.238281 C 232.339844 234.28125 221.761719 246.871094 215.292969 258.058594 C 208.734375 269.414062 206.597656 278.742188 209.992188 284.671875 L 210.003906 284.667969 C 215.679688 294.492188 235.523438 295.875 262.972656 290.175781 C 293.03125 283.9375 331.023438 268.871094 369.773438 246.503906 L 369.804688 246.503906 C 391.835938 233.785156 411.75 220.046875 428.617188 206.328125 C 445.914062 192.257812 459.949219 178.214844 469.6875 165.347656 L 481.972656 174.621094 C 471.554688 188.390625 456.632812 203.339844 438.3125 218.242188 C 429.964844 225.03125 420.882812 231.832031 411.171875 238.527344 M 309.574219 292.273438 C 337.121094 315.9375 372.957031 330.253906 412.121094 330.253906 C 455.601562 330.253906 494.96875 312.644531 523.429688 284.171875 L 523.460938 284.140625 C 551.933594 255.679688 569.542969 216.308594 569.542969 172.832031 C 569.542969 167.523438 569.277344 162.277344 568.765625 157.105469 C 564.570312 183.140625 552.199219 206.441406 534.367188 224.273438 L 534.355469 224.257812 C 512.121094 246.492188 481.410156 260.25 447.535156 260.25 C 429.003906 260.25 411.421875 256.140625 395.664062 248.78125 C 389.78125 252.515625 383.707031 256.195312 377.472656 259.789062 L 377.480469 259.804688 C 354.160156 273.265625 331.035156 284.191406 309.574219 292.273438 Z M 496.6875 115.640625 C 507.78125 115.640625 516.773438 124.636719 516.773438 135.730469 C 516.773438 146.828125 507.78125 155.820312 496.6875 155.820312 C 485.589844 155.820312 476.597656 146.824219 476.597656 135.730469 C 476.597656 124.636719 485.589844 115.640625 496.6875 115.640625 Z M 412.121094 0 C 457.488281 0 498.824219 17.519531 529.683594 46.175781 C 531.277344 47.609375 532.832031 49.082031 534.347656 50.597656 L 534.359375 50.582031 C 536.195312 52.414062 537.972656 54.308594 539.683594 56.253906 C 567.804688 87.007812 584.957031 127.941406 584.957031 172.832031 C 584.957031 220.507812 565.613281 263.71875 534.335938 295.011719 L 534.320312 295.023438 L 534.308594 295.039062 C 503.015625 326.316406 459.800781 345.660156 412.125 345.660156 C 365.953125 345.660156 324.003906 327.546875 293.003906 298.054688 C 283.558594 301.078125 274.542969 303.484375 266.105469 305.234375 C 231.917969 312.335938 206.082031 308.601562 196.703125 292.375 L 196.703125 292.339844 C 190.289062 281.203125 192.609375 266.597656 201.992188 250.351562 C 210.179688 236.1875 224.007812 220.261719 242.109375 204.101562 C 240.25 193.960938 239.277344 183.507812 239.277344 172.824219 C 239.277344 125.140625 258.628906 81.921875 289.917969 50.628906 L 289.90625 50.617188 C 321.175781 19.351562 364.390625 0 412.121094 0 Z M 412.121094 0 " fill-opacity="1" fill-rule="nonzero"/></g></svg>