<svg xmlns="http://www.w3.org/2000/svg" xmlns:xlink="http://www.w3.org/1999/xlink" width="1337" zoomAndPan="magnify" viewBox="0 0 1002.75 318.749988" height="425" preserveAspectRatio="xMidYMid meet" version="1.0"><defs><g/><clipPath id="e328e74973"><path d="M 0.269531 0 L 1002.230469 0 L 1002.230469 318.5 L 0.269531 318.5 Z M 0.269531 0 " clip-rule="nonzero"/></clipPath><clipPath id="520c63429f"><path d="M 2 76.3125 L 240.078125 76.3125 L 240.078125 286.148438 L 2 286.148438 Z M 2 76.3125 " clip-rule="nonzero"/></clipPath></defs><g clip-path="url(#e328e74973)"><path fill="#ffffff" d="M 0.269531 0 L 1002.230469 0 L 1002.230469 318.5 L 0.269531 318.5 Z M 0.269531 0 " fill-opacity="1" fill-rule="nonzero"/></g><g fill="#000000" fill-opacity="1"><g transform="translate(291.205274, 178.939291)"><g><path d="M 3.390625 -33.84375 C 3.390625 -40.882812 4.828125 -47.03125 7.703125 -52.28125 C 10.578125 -57.539062 14.582031 -61.582031 19.71875 -64.40625 C 24.851562 -67.238281 30.734375 -68.65625 37.359375 -68.65625 C 45.859375 -68.65625 52.957031 -66.429688 58.65625 -61.984375 C 64.351562 -57.535156 68.09375 -51.269531 69.875 -43.1875 L 47.796875 -43.1875 C 45.929688 -48.363281 42.332031 -50.953125 37 -50.953125 C 33.195312 -50.953125 30.160156 -49.472656 27.890625 -46.515625 C 25.628906 -43.566406 24.5 -39.34375 24.5 -33.84375 C 24.5 -28.34375 25.628906 -24.113281 27.890625 -21.15625 C 30.160156 -18.207031 33.195312 -16.734375 37 -16.734375 C 42.332031 -16.734375 45.929688 -19.320312 47.796875 -24.5 L 69.875 -24.5 C 68.09375 -16.570312 64.332031 -10.34375 58.59375 -5.8125 C 52.851562 -1.289062 45.773438 0.96875 37.359375 0.96875 C 30.734375 0.96875 24.851562 -0.441406 19.71875 -3.265625 C 14.582031 -6.097656 10.578125 -10.144531 7.703125 -15.40625 C 4.828125 -20.664062 3.390625 -26.8125 3.390625 -33.84375 Z M 3.390625 -33.84375 "/></g></g></g><g fill="#000000" fill-opacity="1"><g transform="translate(364.598495, 178.939291)"><g><path d="M 38.328125 0.96875 C 31.703125 0.96875 25.738281 -0.441406 20.4375 -3.265625 C 15.144531 -6.097656 10.976562 -10.144531 7.9375 -15.40625 C 4.90625 -20.664062 3.390625 -26.8125 3.390625 -33.84375 C 3.390625 -40.800781 4.925781 -46.925781 8 -52.21875 C 11.070312 -57.519531 15.273438 -61.582031 20.609375 -64.40625 C 25.953125 -67.238281 31.941406 -68.65625 38.578125 -68.65625 C 45.210938 -68.65625 51.195312 -67.238281 56.53125 -64.40625 C 61.863281 -61.582031 66.066406 -57.519531 69.140625 -52.21875 C 72.222656 -46.925781 73.765625 -40.800781 73.765625 -33.84375 C 73.765625 -26.882812 72.207031 -20.753906 69.09375 -15.453125 C 65.976562 -10.160156 61.726562 -6.097656 56.34375 -3.265625 C 50.96875 -0.441406 44.960938 0.96875 38.328125 0.96875 Z M 38.328125 -16.984375 C 42.296875 -16.984375 45.675781 -18.4375 48.46875 -21.34375 C 51.257812 -24.257812 52.65625 -28.425781 52.65625 -33.84375 C 52.65625 -39.257812 51.296875 -43.421875 48.578125 -46.328125 C 45.867188 -49.242188 42.535156 -50.703125 38.578125 -50.703125 C 34.535156 -50.703125 31.175781 -49.265625 28.5 -46.390625 C 25.832031 -43.523438 24.5 -39.34375 24.5 -33.84375 C 24.5 -28.425781 25.8125 -24.257812 28.4375 -21.34375 C 31.070312 -18.4375 34.367188 -16.984375 38.328125 -16.984375 Z M 38.328125 -16.984375 "/></g></g></g><g fill="#000000" fill-opacity="1"><g transform="translate(441.873666, 178.939291)"><g><path d="M 28.265625 -56.40625 C 30.691406 -60.125 33.722656 -63.054688 37.359375 -65.203125 C 41.003906 -67.347656 45.050781 -68.421875 49.5 -68.421875 L 49.5 -46.46875 L 43.796875 -46.46875 C 38.617188 -46.46875 34.734375 -45.351562 32.140625 -43.125 C 29.554688 -40.90625 28.265625 -37.003906 28.265625 -31.421875 L 28.265625 0 L 7.515625 0 L 7.515625 -67.6875 L 28.265625 -67.6875 Z M 28.265625 -56.40625 "/></g></g></g><g fill="#000000" fill-opacity="1"><g transform="translate(493.794815, 178.939291)"><g><path d="M 71.328125 -34.9375 C 71.328125 -33 71.207031 -30.976562 70.96875 -28.875 L 24.015625 -28.875 C 24.335938 -24.664062 25.691406 -21.445312 28.078125 -19.21875 C 30.460938 -17 33.394531 -15.890625 36.875 -15.890625 C 42.050781 -15.890625 45.648438 -18.070312 47.671875 -22.4375 L 69.75 -22.4375 C 68.625 -17.988281 66.582031 -13.984375 63.625 -10.421875 C 60.675781 -6.867188 56.976562 -4.082031 52.53125 -2.0625 C 48.082031 -0.0390625 43.109375 0.96875 37.609375 0.96875 C 30.972656 0.96875 25.066406 -0.441406 19.890625 -3.265625 C 14.710938 -6.097656 10.664062 -10.144531 7.75 -15.40625 C 4.84375 -20.664062 3.390625 -26.8125 3.390625 -33.84375 C 3.390625 -40.882812 4.828125 -47.03125 7.703125 -52.28125 C 10.578125 -57.539062 14.597656 -61.582031 19.765625 -64.40625 C 24.941406 -67.238281 30.890625 -68.65625 37.609375 -68.65625 C 44.160156 -68.65625 49.984375 -67.28125 55.078125 -64.53125 C 60.171875 -61.78125 64.148438 -57.859375 67.015625 -52.765625 C 69.890625 -47.671875 71.328125 -41.726562 71.328125 -34.9375 Z M 50.109375 -40.390625 C 50.109375 -43.953125 48.894531 -46.785156 46.46875 -48.890625 C 44.039062 -50.992188 41.003906 -52.046875 37.359375 -52.046875 C 33.878906 -52.046875 30.945312 -51.035156 28.5625 -49.015625 C 26.175781 -46.992188 24.703125 -44.117188 24.140625 -40.390625 Z M 50.109375 -40.390625 "/></g></g></g><g fill="#000000" fill-opacity="1"><g transform="translate(568.522446, 178.939291)"><g/></g></g><g fill="#000000" fill-opacity="1"><g transform="translate(594.240402, 178.939291)"><g><path d="M 38.328125 0.96875 C 31.703125 0.96875 25.738281 -0.441406 20.4375 -3.265625 C 15.144531 -6.097656 10.976562 -10.144531 7.9375 -15.40625 C 4.90625 -20.664062 3.390625 -26.8125 3.390625 -33.84375 C 3.390625 -40.800781 4.925781 -46.925781 8 -52.21875 C 11.070312 -57.519531 15.273438 -61.582031 20.609375 -64.40625 C 25.953125 -67.238281 31.941406 -68.65625 38.578125 -68.65625 C 45.210938 -68.65625 51.195312 -67.238281 56.53125 -64.40625 C 61.863281 -61.582031 66.066406 -57.519531 69.140625 -52.21875 C 72.222656 -46.925781 73.765625 -40.800781 73.765625 -33.84375 C 73.765625 -26.882812 72.207031 -20.753906 69.09375 -15.453125 C 65.976562 -10.160156 61.726562 -6.097656 56.34375 -3.265625 C 50.96875 -0.441406 44.960938 0.96875 38.328125 0.96875 Z M 38.328125 -16.984375 C 42.296875 -16.984375 45.675781 -18.4375 48.46875 -21.34375 C 51.257812 -24.257812 52.65625 -28.425781 52.65625 -33.84375 C 52.65625 -39.257812 51.296875 -43.421875 48.578125 -46.328125 C 45.867188 -49.242188 42.535156 -50.703125 38.578125 -50.703125 C 34.535156 -50.703125 31.175781 -49.265625 28.5 -46.390625 C 25.832031 -43.523438 24.5 -39.34375 24.5 -33.84375 C 24.5 -28.425781 25.8125 -24.257812 28.4375 -21.34375 C 31.070312 -18.4375 34.367188 -16.984375 38.328125 -16.984375 Z M 38.328125 -16.984375 "/></g></g></g><g fill="#000000" fill-opacity="1"><g transform="translate(671.515573, 178.939291)"><g><path d="M 28.265625 -56.40625 C 30.691406 -60.125 33.722656 -63.054688 37.359375 -65.203125 C 41.003906 -67.347656 45.050781 -68.421875 49.5 -68.421875 L 49.5 -46.46875 L 43.796875 -46.46875 C 38.617188 -46.46875 34.734375 -45.351562 32.140625 -43.125 C 29.554688 -40.90625 28.265625 -37.003906 28.265625 -31.421875 L 28.265625 0 L 7.515625 0 L 7.515625 -67.6875 L 28.265625 -67.6875 Z M 28.265625 -56.40625 "/></g></g></g><g fill="#000000" fill-opacity="1"><g transform="translate(723.436745, 178.939291)"><g><path d="M 28.265625 -58.109375 C 30.203125 -61.265625 32.988281 -63.8125 36.625 -65.75 C 40.269531 -67.6875 44.4375 -68.65625 49.125 -68.65625 C 54.707031 -68.65625 59.765625 -67.238281 64.296875 -64.40625 C 68.828125 -61.582031 72.40625 -57.539062 75.03125 -52.28125 C 77.65625 -47.03125 78.96875 -40.925781 78.96875 -33.96875 C 78.96875 -27.007812 77.65625 -20.878906 75.03125 -15.578125 C 72.40625 -10.285156 68.828125 -6.203125 64.296875 -3.328125 C 59.765625 -0.460938 54.707031 0.96875 49.125 0.96875 C 44.351562 0.96875 40.1875 0.0195312 36.625 -1.875 C 33.070312 -3.78125 30.285156 -6.3125 28.265625 -9.46875 L 28.265625 0 L 7.515625 0 L 7.515625 -89.765625 L 28.265625 -89.765625 Z M 57.859375 -33.96875 C 57.859375 -39.144531 56.421875 -43.207031 53.546875 -46.15625 C 50.679688 -49.113281 47.144531 -50.59375 42.9375 -50.59375 C 38.8125 -50.59375 35.3125 -49.09375 32.4375 -46.09375 C 29.570312 -43.101562 28.140625 -39.019531 28.140625 -33.84375 C 28.140625 -28.664062 29.570312 -24.582031 32.4375 -21.59375 C 35.3125 -18.601562 38.8125 -17.109375 42.9375 -17.109375 C 47.0625 -17.109375 50.578125 -18.625 53.484375 -21.65625 C 56.398438 -24.6875 57.859375 -28.789062 57.859375 -33.96875 Z M 57.859375 -33.96875 "/></g></g></g><g fill="#000000" fill-opacity="1"><g transform="translate(805.806995, 178.939291)"><g><path d="M 17.953125 -74.734375 C 14.316406 -74.734375 11.34375 -75.800781 9.03125 -77.9375 C 6.726562 -80.082031 5.578125 -82.734375 5.578125 -85.890625 C 5.578125 -89.117188 6.726562 -91.804688 9.03125 -93.953125 C 11.34375 -96.097656 14.316406 -97.171875 17.953125 -97.171875 C 21.515625 -97.171875 24.445312 -96.097656 26.75 -93.953125 C 29.050781 -91.804688 30.203125 -89.117188 30.203125 -85.890625 C 30.203125 -82.734375 29.050781 -80.082031 26.75 -77.9375 C 24.445312 -75.800781 21.515625 -74.734375 17.953125 -74.734375 Z M 28.265625 -67.6875 L 28.265625 0 L 7.515625 0 L 7.515625 -67.6875 Z M 28.265625 -67.6875 "/></g></g></g><g fill="#000000" fill-opacity="1"><g transform="translate(841.593758, 178.939291)"><g><path d="M 45.25 -17.59375 L 45.25 0 L 34.703125 0 C 27.171875 0 21.300781 -1.835938 17.09375 -5.515625 C 12.894531 -9.203125 10.796875 -15.207031 10.796875 -23.53125 L 10.796875 -50.46875 L 2.546875 -50.46875 L 2.546875 -67.6875 L 10.796875 -67.6875 L 10.796875 -84.1875 L 31.546875 -84.1875 L 31.546875 -67.6875 L 45.125 -67.6875 L 45.125 -50.46875 L 31.546875 -50.46875 L 31.546875 -23.296875 C 31.546875 -21.273438 32.03125 -19.816406 33 -18.921875 C 33.96875 -18.035156 35.582031 -17.59375 37.84375 -17.59375 Z M 45.25 -17.59375 "/></g></g></g><g fill="#000000" fill-opacity="1"><g transform="translate(291.205274, 263.400445)"><g><path d="M 19.03125 0.625 C 16.082031 0.625 13.4375 0.125 11.09375 -0.875 C 8.75 -1.882812 6.898438 -3.289062 5.546875 -5.09375 C 4.191406 -6.894531 3.441406 -8.96875 3.296875 -11.3125 L 9.90625 -11.3125 C 10.09375 -9.382812 10.992188 -7.8125 12.609375 -6.59375 C 14.222656 -5.382812 16.34375 -4.78125 18.96875 -4.78125 C 21.394531 -4.78125 23.3125 -5.316406 24.71875 -6.390625 C 26.125 -7.460938 26.828125 -8.820312 26.828125 -10.46875 C 26.828125 -12.15625 26.078125 -13.40625 24.578125 -14.21875 C 23.078125 -15.039062 20.757812 -15.847656 17.625 -16.640625 C 14.769531 -17.390625 12.441406 -18.148438 10.640625 -18.921875 C 8.835938 -19.703125 7.289062 -20.851562 6 -22.375 C 4.71875 -23.894531 4.078125 -25.894531 4.078125 -28.375 C 4.078125 -30.34375 4.660156 -32.144531 5.828125 -33.78125 C 6.992188 -35.414062 8.65625 -36.710938 10.8125 -37.671875 C 12.96875 -38.640625 15.425781 -39.125 18.1875 -39.125 C 22.445312 -39.125 25.890625 -38.046875 28.515625 -35.890625 C 31.140625 -33.734375 32.546875 -30.785156 32.734375 -27.046875 L 26.34375 -27.046875 C 26.195312 -29.054688 25.382812 -30.671875 23.90625 -31.890625 C 22.4375 -33.109375 20.460938 -33.71875 17.984375 -33.71875 C 15.679688 -33.71875 13.851562 -33.222656 12.5 -32.234375 C 11.144531 -31.253906 10.46875 -29.96875 10.46875 -28.375 C 10.46875 -27.113281 10.875 -26.070312 11.6875 -25.25 C 12.507812 -24.425781 13.539062 -23.769531 14.78125 -23.28125 C 16.019531 -22.789062 17.742188 -22.238281 19.953125 -21.625 C 22.710938 -20.882812 24.957031 -20.148438 26.6875 -19.421875 C 28.414062 -18.691406 29.898438 -17.601562 31.140625 -16.15625 C 32.390625 -14.707031 33.035156 -12.8125 33.078125 -10.46875 C 33.078125 -8.351562 32.488281 -6.453125 31.3125 -4.765625 C 30.144531 -3.085938 28.492188 -1.769531 26.359375 -0.8125 C 24.234375 0.144531 21.789062 0.625 19.03125 0.625 Z M 19.03125 0.625 "/></g></g></g><g fill="#000000" fill-opacity="1"><g transform="translate(327.86742, 263.400445)"><g><path d="M 22.1875 0.625 C 18.582031 0.625 15.316406 -0.191406 12.390625 -1.828125 C 9.460938 -3.460938 7.164062 -5.789062 5.5 -8.8125 C 3.84375 -11.832031 3.015625 -15.332031 3.015625 -19.3125 C 3.015625 -23.25 3.867188 -26.726562 5.578125 -29.75 C 7.285156 -32.769531 9.613281 -35.085938 12.5625 -36.703125 C 15.519531 -38.316406 18.820312 -39.125 22.46875 -39.125 C 26.125 -39.125 29.425781 -38.316406 32.375 -36.703125 C 35.320312 -35.085938 37.648438 -32.78125 39.359375 -29.78125 C 41.078125 -26.78125 41.9375 -23.289062 41.9375 -19.3125 C 41.9375 -15.332031 41.054688 -11.832031 39.296875 -8.8125 C 37.535156 -5.789062 35.15625 -3.460938 32.15625 -1.828125 C 29.164062 -0.191406 25.84375 0.625 22.1875 0.625 Z M 22.1875 -4.984375 C 24.488281 -4.984375 26.644531 -5.519531 28.65625 -6.59375 C 30.664062 -7.675781 32.289062 -9.289062 33.53125 -11.4375 C 34.769531 -13.59375 35.390625 -16.21875 35.390625 -19.3125 C 35.390625 -22.40625 34.78125 -25.023438 33.5625 -27.171875 C 32.351562 -29.328125 30.765625 -30.929688 28.796875 -31.984375 C 26.828125 -33.046875 24.695312 -33.578125 22.40625 -33.578125 C 20.0625 -33.578125 17.914062 -33.046875 15.96875 -31.984375 C 14.03125 -30.929688 12.472656 -29.328125 11.296875 -27.171875 C 10.128906 -25.023438 9.546875 -22.40625 9.546875 -19.3125 C 9.546875 -16.175781 10.117188 -13.53125 11.265625 -11.375 C 12.421875 -9.21875 13.957031 -7.613281 15.875 -6.5625 C 17.789062 -5.507812 19.894531 -4.984375 22.1875 -4.984375 Z M 22.1875 -4.984375 "/></g></g></g><g fill="#000000" fill-opacity="1"><g transform="translate(372.81717, 263.400445)"><g><path d="M 21.0625 -33.21875 L 13 -33.21875 L 13 0 L 6.609375 0 L 6.609375 -33.21875 L 1.609375 -33.21875 L 1.609375 -38.484375 L 6.609375 -38.484375 L 6.609375 -41.234375 C 6.609375 -45.535156 7.71875 -48.679688 9.9375 -50.671875 C 12.164062 -52.660156 15.738281 -53.65625 20.65625 -53.65625 L 20.65625 -48.328125 C 17.84375 -48.328125 15.863281 -47.773438 14.71875 -46.671875 C 13.570312 -45.566406 13 -43.753906 13 -41.234375 L 13 -38.484375 L 21.0625 -38.484375 Z M 21.0625 -33.21875 "/></g></g></g><g fill="#000000" fill-opacity="1"><g transform="translate(395.924155, 263.400445)"><g><path d="M 13.203125 -33.21875 L 13.203125 -10.53125 C 13.203125 -8.65625 13.597656 -7.332031 14.390625 -6.5625 C 15.191406 -5.789062 16.578125 -5.40625 18.546875 -5.40625 L 23.25 -5.40625 L 23.25 0 L 17.484375 0 C 13.929688 0 11.265625 -0.816406 9.484375 -2.453125 C 7.703125 -4.097656 6.8125 -6.789062 6.8125 -10.53125 L 6.8125 -33.21875 L 1.828125 -33.21875 L 1.828125 -38.484375 L 6.8125 -38.484375 L 6.8125 -48.1875 L 13.203125 -48.1875 L 13.203125 -38.484375 L 23.25 -38.484375 L 23.25 -33.21875 Z M 13.203125 -33.21875 "/></g></g></g><g fill="#000000" fill-opacity="1"><g transform="translate(421.489326, 263.400445)"><g><path d="M 56.671875 -38.484375 L 44.671875 0 L 38.0625 0 L 28.796875 -30.546875 L 19.53125 0 L 12.921875 0 L 0.84375 -38.484375 L 7.375 -38.484375 L 16.21875 -6.1875 L 25.78125 -38.484375 L 32.3125 -38.484375 L 41.65625 -6.109375 L 50.359375 -38.484375 Z M 56.671875 -38.484375 "/></g></g></g><g fill="#000000" fill-opacity="1"><g transform="translate(479.081198, 263.400445)"><g><path d="M 3.015625 -19.390625 C 3.015625 -23.316406 3.8125 -26.765625 5.40625 -29.734375 C 7 -32.710938 9.1875 -35.019531 11.96875 -36.65625 C 14.757812 -38.300781 17.863281 -39.125 21.28125 -39.125 C 24.65625 -39.125 27.582031 -38.394531 30.0625 -36.9375 C 32.539062 -35.488281 34.390625 -33.664062 35.609375 -31.46875 L 35.609375 -38.484375 L 42.078125 -38.484375 L 42.078125 0 L 35.609375 0 L 35.609375 -7.15625 C 34.347656 -4.914062 32.460938 -3.054688 29.953125 -1.578125 C 27.453125 -0.109375 24.535156 0.625 21.203125 0.625 C 17.785156 0.625 14.695312 -0.210938 11.9375 -1.890625 C 9.175781 -3.578125 7 -5.941406 5.40625 -8.984375 C 3.8125 -12.035156 3.015625 -15.503906 3.015625 -19.390625 Z M 35.609375 -19.3125 C 35.609375 -22.21875 35.019531 -24.742188 33.84375 -26.890625 C 32.675781 -29.046875 31.097656 -30.695312 29.109375 -31.84375 C 27.117188 -33 24.929688 -33.578125 22.546875 -33.578125 C 20.160156 -33.578125 17.984375 -33.015625 16.015625 -31.890625 C 14.046875 -30.765625 12.472656 -29.125 11.296875 -26.96875 C 10.128906 -24.8125 9.546875 -22.285156 9.546875 -19.390625 C 9.546875 -16.429688 10.128906 -13.863281 11.296875 -11.6875 C 12.472656 -9.507812 14.046875 -7.847656 16.015625 -6.703125 C 17.984375 -5.554688 20.160156 -4.984375 22.546875 -4.984375 C 24.929688 -4.984375 27.117188 -5.554688 29.109375 -6.703125 C 31.097656 -7.847656 32.675781 -9.507812 33.84375 -11.6875 C 35.019531 -13.863281 35.609375 -16.40625 35.609375 -19.3125 Z M 35.609375 -19.3125 "/></g></g></g><g fill="#000000" fill-opacity="1"><g transform="translate(526.559368, 263.400445)"><g><path d="M 11.796875 -32.234375 C 12.921875 -34.429688 14.523438 -36.140625 16.609375 -37.359375 C 18.691406 -38.578125 21.234375 -39.1875 24.234375 -39.1875 L 24.234375 -32.59375 L 22.546875 -32.59375 C 15.378906 -32.59375 11.796875 -28.707031 11.796875 -20.9375 L 11.796875 0 L 5.40625 0 L 5.40625 -38.484375 L 11.796875 -38.484375 Z M 11.796875 -32.234375 "/></g></g></g><g fill="#000000" fill-opacity="1"><g transform="translate(552.756662, 263.400445)"><g><path d="M 40.53125 -20.71875 C 40.53125 -19.5 40.457031 -18.210938 40.3125 -16.859375 L 9.546875 -16.859375 C 9.785156 -13.066406 11.085938 -10.101562 13.453125 -7.96875 C 15.816406 -5.84375 18.679688 -4.78125 22.046875 -4.78125 C 24.816406 -4.78125 27.125 -5.421875 28.96875 -6.703125 C 30.820312 -7.992188 32.125 -9.71875 32.875 -11.875 L 39.75 -11.875 C 38.71875 -8.175781 36.65625 -5.164062 33.5625 -2.84375 C 30.476562 -0.53125 26.640625 0.625 22.046875 0.625 C 18.398438 0.625 15.132812 -0.191406 12.25 -1.828125 C 9.375 -3.460938 7.113281 -5.789062 5.46875 -8.8125 C 3.832031 -11.832031 3.015625 -15.332031 3.015625 -19.3125 C 3.015625 -23.289062 3.8125 -26.78125 5.40625 -29.78125 C 7 -32.78125 9.234375 -35.085938 12.109375 -36.703125 C 14.992188 -38.316406 18.304688 -39.125 22.046875 -39.125 C 25.703125 -39.125 28.929688 -38.328125 31.734375 -36.734375 C 34.546875 -35.140625 36.710938 -32.945312 38.234375 -30.15625 C 39.765625 -27.375 40.53125 -24.226562 40.53125 -20.71875 Z M 33.921875 -22.046875 C 33.921875 -24.484375 33.378906 -26.578125 32.296875 -28.328125 C 31.222656 -30.085938 29.757812 -31.425781 27.90625 -32.34375 C 26.0625 -33.257812 24.015625 -33.71875 21.765625 -33.71875 C 18.535156 -33.71875 15.785156 -32.6875 13.515625 -30.625 C 11.242188 -28.5625 9.945312 -25.703125 9.625 -22.046875 Z M 33.921875 -22.046875 "/></g></g></g><g clip-path="url(#520c63429f)"><path fill="#4910bc" d="M 134.589844 221.253906 C 141.488281 223.738281 148.929688 225.089844 156.679688 225.089844 C 174.710938 225.089844 191.03125 217.789062 202.824219 205.992188 L 202.824219 205.972656 C 214.628906 194.164062 221.9375 177.84375 221.9375 159.820312 C 221.9375 142.734375 215.367188 127.171875 204.617188 115.542969 C 204.027344 114.917969 203.429688 114.304688 202.820312 113.695312 L 202.800781 113.675781 C 201.988281 112.863281 201.15625 112.0625 200.316406 111.277344 C 188.765625 100.882812 173.46875 94.554688 156.679688 94.554688 C 138.660156 94.554688 122.339844 101.863281 110.53125 113.671875 C 98.726562 125.476562 91.414062 141.804688 91.414062 159.820312 C 91.414062 177.839844 98.726562 194.164062 110.53125 205.972656 C 113.320312 208.757812 116.359375 211.292969 119.609375 213.546875 C 116.824219 215.34375 113.964844 217.121094 111.035156 218.871094 C 108.527344 216.929688 106.144531 214.835938 103.910156 212.597656 C 90.410156 199.09375 82.046875 180.433594 82.046875 159.820312 C 82.046875 139.222656 90.410156 120.554688 103.910156 107.054688 C 114.742188 96.222656 128.894531 88.703125 144.703125 86.148438 C 141.566406 85.835938 138.382812 85.675781 135.160156 85.675781 C 108.746094 85.675781 84.824219 96.386719 67.515625 113.695312 L 67.5 113.695312 C 50.199219 130.992188 39.5 154.914062 39.5 181.332031 C 39.5 204.523438 47.742188 225.785156 61.457031 242.332031 C 58.179688 243.457031 54.992188 244.457031 51.902344 245.332031 C 44.042969 235.121094 38.015625 223.425781 34.316406 210.746094 C 25.917969 218.671875 19.492188 226.324219 15.5625 233.125 C 11.574219 240.023438 10.277344 245.691406 12.339844 249.296875 L 12.347656 249.289062 C 15.796875 255.261719 27.855469 256.101562 44.535156 252.640625 C 62.796875 248.847656 85.886719 239.691406 109.433594 226.101562 L 109.453125 226.101562 C 122.839844 218.375 134.9375 210.023438 145.191406 201.6875 C 155.699219 193.136719 164.230469 184.605469 170.144531 176.785156 L 177.609375 182.421875 C 171.28125 190.789062 162.210938 199.871094 151.082031 208.925781 C 146.007812 213.050781 140.488281 217.1875 134.589844 221.253906 M 72.851562 253.914062 C 89.589844 268.292969 111.367188 276.992188 135.164062 276.992188 C 161.585938 276.992188 185.507812 266.292969 202.800781 248.992188 L 202.820312 248.96875 C 220.125 231.675781 230.820312 207.753906 230.820312 181.332031 C 230.820312 178.109375 230.660156 174.921875 230.351562 171.777344 C 227.800781 187.597656 220.285156 201.757812 209.449219 212.59375 L 209.441406 212.585938 C 195.929688 226.09375 177.269531 234.453125 156.6875 234.453125 C 145.421875 234.453125 134.742188 231.957031 125.164062 227.488281 C 121.589844 229.753906 117.898438 231.988281 114.113281 234.175781 L 114.117188 234.183594 C 99.945312 242.363281 85.894531 249.003906 72.851562 253.914062 Z M 186.550781 146.582031 C 193.292969 146.582031 198.757812 152.046875 198.757812 158.789062 C 198.757812 165.53125 193.292969 170.996094 186.550781 170.996094 C 179.808594 170.996094 174.34375 165.53125 174.34375 158.789062 C 174.34375 152.046875 179.808594 146.582031 186.550781 146.582031 Z M 135.164062 76.3125 C 162.734375 76.3125 187.851562 86.957031 206.601562 104.371094 C 207.570312 105.242188 208.515625 106.136719 209.4375 107.058594 L 209.445312 107.050781 C 210.558594 108.164062 211.640625 109.3125 212.679688 110.496094 C 229.765625 129.183594 240.191406 154.054688 240.191406 181.332031 C 240.191406 210.304688 228.433594 236.5625 209.429688 255.578125 L 209.421875 255.585938 L 209.410156 255.59375 C 190.398438 274.601562 164.136719 286.355469 135.167969 286.355469 C 107.109375 286.355469 81.621094 275.347656 62.78125 257.425781 C 57.042969 259.261719 51.566406 260.726562 46.4375 261.789062 C 25.664062 266.105469 9.964844 263.835938 4.265625 253.976562 L 4.265625 253.953125 C 0.367188 247.1875 1.777344 238.3125 7.480469 228.441406 C 12.457031 219.832031 20.859375 210.15625 31.855469 200.335938 C 30.726562 194.171875 30.136719 187.820312 30.136719 181.328125 C 30.136719 152.355469 41.894531 126.09375 60.910156 107.078125 L 60.902344 107.070312 C 79.902344 88.070312 106.160156 76.3125 135.164062 76.3125 Z M 135.164062 76.3125 " fill-opacity="1" fill-rule="nonzero"/></g></svg>