<svg xmlns="http://www.w3.org/2000/svg" xmlns:xlink="http://www.w3.org/1999/xlink" width="776" zoomAndPan="magnify" viewBox="0 0 582 440.25" height="587" preserveAspectRatio="xMidYMid meet" version="1.0"><defs><clipPath id="911cd9a682"><path d="M 0.496094 0 L 581.503906 0 L 581.503906 439.5 L 0.496094 439.5 Z M 0.496094 0 " clip-rule="nonzero"/></clipPath><clipPath id="0129fe1bb0"><path d="M 19.523438 30.910156 L 561.601562 30.910156 L 561.601562 439.5 L 19.523438 439.5 Z M 19.523438 30.910156 " clip-rule="nonzero"/></clipPath><clipPath id="af8f933e20"><path d="M 154.390625 30.910156 L 428.398438 30.910156 L 428.398438 272.589844 L 154.390625 272.589844 Z M 154.390625 30.910156 " clip-rule="nonzero"/></clipPath></defs><path fill="#000000" d="M 83.285156 327.972656 C 83.285156 323.050781 84.285156 318.753906 86.289062 315.078125 C 88.300781 311.398438 91.097656 308.566406 94.691406 306.589844 C 98.277344 304.609375 102.394531 303.617188 107.023438 303.617188 C 112.960938 303.617188 117.921875 305.175781 121.90625 308.285156 C 125.886719 311.390625 128.503906 315.773438 129.75 321.429688 L 114.3125 321.429688 C 113.015625 317.816406 110.5 316.007812 106.773438 316.007812 C 104.113281 316.007812 101.992188 317.039062 100.414062 319.101562 C 98.832031 321.167969 98.042969 324.121094 98.042969 327.972656 C 98.042969 331.820312 98.832031 334.78125 100.414062 336.839844 C 101.992188 338.90625 104.113281 339.9375 106.773438 339.9375 C 110.5 339.9375 113.015625 338.125 114.3125 334.5 L 129.75 334.5 C 128.503906 340.050781 125.875 344.410156 121.863281 347.582031 C 117.847656 350.746094 112.902344 352.328125 107.023438 352.328125 C 102.394531 352.328125 98.277344 351.339844 94.691406 349.363281 C 91.097656 347.382812 88.300781 344.550781 86.289062 340.878906 C 84.285156 337.195312 83.285156 332.894531 83.285156 327.972656 Z M 83.285156 327.972656 " fill-opacity="1" fill-rule="nonzero"/><path fill="#000000" d="M 158.996094 352.328125 C 154.363281 352.328125 150.191406 351.339844 146.484375 349.363281 C 142.785156 347.382812 139.875 344.550781 137.757812 340.878906 C 135.636719 337.195312 134.578125 332.894531 134.578125 327.972656 C 134.578125 323.109375 135.652344 318.824219 137.800781 315.121094 C 139.945312 311.410156 142.886719 308.566406 146.617188 306.589844 C 150.34375 304.609375 154.53125 303.617188 159.167969 303.617188 C 163.800781 303.617188 167.980469 304.609375 171.710938 306.589844 C 175.441406 308.566406 178.378906 311.410156 180.527344 315.121094 C 182.675781 318.824219 183.75 323.109375 183.75 327.972656 C 183.75 332.835938 182.660156 337.125 180.484375 340.832031 C 178.3125 344.539062 175.34375 347.382812 171.582031 349.363281 C 167.824219 351.339844 163.628906 352.328125 158.996094 352.328125 Z M 158.996094 339.773438 C 161.761719 339.773438 164.121094 338.753906 166.074219 336.722656 C 168.023438 334.679688 169.003906 331.765625 169.003906 327.972656 C 169.003906 324.183594 168.054688 321.265625 166.164062 319.234375 C 164.265625 317.195312 161.9375 316.171875 159.167969 316.171875 C 156.34375 316.171875 153.996094 317.175781 152.132812 319.191406 C 150.269531 321.195312 149.335938 324.121094 149.335938 327.972656 C 149.335938 331.765625 150.253906 334.679688 152.089844 336.722656 C 153.925781 338.753906 156.226562 339.773438 158.996094 339.773438 Z M 158.996094 339.773438 " fill-opacity="1" fill-rule="nonzero"/><path fill="#000000" d="M 205.964844 312.191406 C 207.660156 309.585938 209.78125 307.535156 212.324219 306.03125 C 214.863281 304.53125 217.691406 303.78125 220.800781 303.78125 L 220.800781 319.144531 L 216.8125 319.144531 C 213.199219 319.144531 210.488281 319.929688 208.675781 321.484375 C 206.867188 323.039062 205.964844 325.769531 205.964844 329.667969 L 205.964844 351.648438 L 191.46875 351.648438 L 191.46875 304.292969 L 205.964844 304.292969 Z M 205.964844 312.191406 " fill-opacity="1" fill-rule="nonzero"/><path fill="#000000" d="M 272.351562 327.207031 C 272.351562 328.5625 272.265625 329.980469 272.097656 331.449219 L 239.28125 331.449219 C 239.511719 334.398438 240.460938 336.644531 242.121094 338.199219 C 243.785156 339.75 245.835938 340.527344 248.269531 340.527344 C 251.890625 340.527344 254.40625 339 255.820312 335.945312 L 271.246094 335.945312 C 270.453125 339.058594 269.023438 341.863281 266.964844 344.355469 C 264.902344 346.84375 262.316406 348.792969 259.207031 350.207031 C 256.097656 351.621094 252.621094 352.328125 248.785156 352.328125 C 244.144531 352.328125 240.015625 351.339844 236.394531 349.363281 C 232.78125 347.382812 229.953125 344.550781 227.917969 340.878906 C 225.886719 337.195312 224.871094 332.894531 224.871094 327.972656 C 224.871094 323.050781 225.867188 318.753906 227.875 315.078125 C 229.882812 311.398438 232.695312 308.566406 236.320312 306.589844 C 239.9375 304.609375 244.09375 303.617188 248.785156 303.617188 C 253.355469 303.617188 257.425781 304.578125 260.988281 306.503906 C 264.550781 308.425781 267.332031 311.171875 269.335938 314.738281 C 271.34375 318.296875 272.351562 322.453125 272.351562 327.207031 Z M 257.515625 323.390625 C 257.515625 320.894531 256.664062 318.917969 254.96875 317.449219 C 253.269531 315.980469 251.148438 315.242188 248.609375 315.242188 C 246.175781 315.242188 244.125 315.949219 242.460938 317.363281 C 240.796875 318.78125 239.765625 320.785156 239.367188 323.390625 Z M 257.515625 323.390625 " fill-opacity="1" fill-rule="nonzero"/><path fill="#000000" d="M 319.488281 352.328125 C 314.855469 352.328125 310.683594 351.339844 306.976562 349.363281 C 303.277344 347.382812 300.367188 344.550781 298.246094 340.878906 C 296.128906 337.195312 295.066406 332.894531 295.066406 327.972656 C 295.066406 323.109375 296.140625 318.824219 298.292969 315.121094 C 300.4375 311.410156 303.375 308.566406 307.109375 306.589844 C 310.835938 304.609375 315.019531 303.617188 319.660156 303.617188 C 324.292969 303.617188 328.472656 304.609375 332.203125 306.589844 C 335.933594 308.566406 338.871094 311.410156 341.019531 315.121094 C 343.167969 318.824219 344.242188 323.109375 344.242188 327.972656 C 344.242188 332.835938 343.152344 337.125 340.976562 340.832031 C 338.804688 344.539062 335.835938 347.382812 332.074219 349.363281 C 328.3125 351.339844 324.117188 352.328125 319.488281 352.328125 Z M 319.488281 339.773438 C 322.253906 339.773438 324.613281 338.753906 326.566406 336.722656 C 328.515625 334.679688 329.492188 331.765625 329.492188 327.972656 C 329.492188 324.183594 328.546875 321.265625 326.652344 319.234375 C 324.757812 317.195312 322.429688 316.171875 319.660156 316.171875 C 316.835938 316.171875 314.488281 317.175781 312.625 319.191406 C 310.757812 321.195312 309.828125 324.121094 309.828125 327.972656 C 309.828125 331.765625 310.746094 334.679688 312.582031 336.722656 C 314.417969 338.753906 316.714844 339.773438 319.488281 339.773438 Z M 319.488281 339.773438 " fill-opacity="1" fill-rule="nonzero"/><path fill="#000000" d="M 366.457031 312.191406 C 368.152344 309.585938 370.273438 307.535156 372.816406 306.03125 C 375.355469 304.53125 378.183594 303.78125 381.292969 303.78125 L 381.292969 319.144531 L 377.304688 319.144531 C 373.691406 319.144531 370.980469 319.929688 369.164062 321.484375 C 367.359375 323.039062 366.457031 325.769531 366.457031 329.667969 L 366.457031 351.648438 L 351.957031 351.648438 L 351.957031 304.292969 L 366.457031 304.292969 Z M 366.457031 312.191406 " fill-opacity="1" fill-rule="nonzero"/><path fill="#000000" d="M 402.742188 310.996094 C 404.097656 308.789062 406.042969 307.007812 408.585938 305.648438 C 411.136719 304.292969 414.050781 303.617188 417.328125 303.617188 C 421.222656 303.617188 424.75 304.609375 427.914062 306.589844 C 431.082031 308.566406 433.585938 311.398438 435.421875 315.078125 C 437.261719 318.753906 438.183594 323.023438 438.183594 327.882812 C 438.183594 332.757812 437.261719 337.042969 435.421875 340.746094 C 433.585938 344.449219 431.082031 347.308594 427.914062 349.320312 C 424.75 351.328125 421.222656 352.328125 417.328125 352.328125 C 413.992188 352.328125 411.078125 351.664062 408.585938 350.335938 C 406.101562 349.003906 404.15625 347.238281 402.742188 345.035156 L 402.742188 351.648438 L 388.246094 351.648438 L 388.246094 288.851562 L 402.742188 288.851562 Z M 423.433594 327.882812 C 423.433594 324.269531 422.429688 321.429688 420.417969 319.363281 C 418.414062 317.292969 415.941406 316.257812 413 316.257812 C 410.117188 316.257812 407.671875 317.304688 405.660156 319.398438 C 403.65625 321.492188 402.65625 324.347656 402.65625 327.972656 C 402.65625 331.597656 403.65625 334.453125 405.660156 336.546875 C 407.671875 338.640625 410.117188 339.683594 413 339.683594 C 415.886719 339.683594 418.34375 338.625 420.375 336.503906 C 422.414062 334.378906 423.433594 331.511719 423.433594 327.882812 Z M 423.433594 327.882812 " fill-opacity="1" fill-rule="nonzero"/><path fill="#000000" d="M 453.097656 299.371094 C 450.554688 299.371094 448.480469 298.625 446.871094 297.128906 C 445.257812 295.628906 444.457031 293.773438 444.457031 291.5625 C 444.457031 289.304688 445.257812 287.421875 446.871094 285.917969 C 448.480469 284.417969 450.554688 283.667969 453.097656 283.667969 C 455.589844 283.667969 457.636719 284.417969 459.25 285.917969 C 460.859375 287.421875 461.664062 289.304688 461.664062 291.5625 C 461.664062 293.773438 460.859375 295.628906 459.25 297.128906 C 457.636719 298.625 455.589844 299.371094 453.097656 299.371094 Z M 460.308594 304.292969 L 460.308594 351.648438 L 445.8125 351.648438 L 445.8125 304.292969 Z M 460.308594 304.292969 " fill-opacity="1" fill-rule="nonzero"/><path fill="#000000" d="M 497.183594 339.347656 L 497.183594 351.648438 L 489.808594 351.648438 C 484.558594 351.648438 480.460938 350.363281 477.519531 347.789062 C 474.582031 345.214844 473.117188 341.015625 473.117188 335.191406 L 473.117188 316.347656 L 467.347656 316.347656 L 467.347656 304.292969 L 473.117188 304.292969 L 473.117188 292.753906 L 487.613281 292.753906 L 487.613281 304.292969 L 497.109375 304.292969 L 497.109375 316.347656 L 487.613281 316.347656 L 487.613281 335.355469 C 487.613281 336.769531 487.953125 337.789062 488.628906 338.417969 C 489.308594 339.039062 490.433594 339.347656 492.015625 339.347656 Z M 497.183594 339.347656 " fill-opacity="1" fill-rule="nonzero"/><path fill="#000000" d="M 197.210938 401.601562 C 195.148438 401.601562 193.300781 401.25 191.660156 400.550781 C 190.023438 399.847656 188.726562 398.863281 187.78125 397.597656 C 186.835938 396.339844 186.308594 394.890625 186.207031 393.257812 L 190.832031 393.257812 C 190.953125 394.597656 191.578125 395.695312 192.710938 396.550781 C 193.847656 397.398438 195.324219 397.816406 197.15625 397.816406 C 198.859375 397.816406 200.199219 397.441406 201.175781 396.691406 C 202.160156 395.941406 202.652344 394.992188 202.652344 393.847656 C 202.652344 392.667969 202.128906 391.792969 201.078125 391.222656 C 200.035156 390.648438 198.417969 390.078125 196.226562 389.515625 C 194.230469 388.992188 192.601562 388.460938 191.34375 387.917969 C 190.082031 387.382812 189 386.578125 188.097656 385.515625 C 187.203125 384.449219 186.753906 383.050781 186.753906 381.3125 C 186.753906 379.9375 187.164062 378.675781 187.980469 377.53125 C 188.792969 376.386719 189.957031 375.480469 191.464844 374.804688 C 192.972656 374.128906 194.691406 373.789062 196.621094 373.789062 C 199.597656 373.789062 202 374.542969 203.832031 376.054688 C 205.667969 377.5625 206.648438 379.625 206.78125 382.242188 L 202.3125 382.242188 C 202.210938 380.839844 201.640625 379.707031 200.609375 378.851562 C 199.582031 378 198.199219 377.574219 196.46875 377.574219 C 194.863281 377.574219 193.585938 377.921875 192.632812 378.613281 C 191.683594 379.300781 191.210938 380.199219 191.210938 381.3125 C 191.210938 382.195312 191.5 382.925781 192.074219 383.5 C 192.648438 384.070312 193.371094 384.53125 194.238281 384.878906 C 195.105469 385.222656 196.308594 385.605469 197.84375 386.027344 C 199.773438 386.550781 201.34375 387.070312 202.554688 387.582031 C 203.769531 388.082031 204.808594 388.847656 205.679688 389.867188 C 206.542969 390.882812 206.992188 392.207031 207.023438 393.847656 C 207.023438 395.320312 206.613281 396.648438 205.796875 397.828125 C 204.980469 399.003906 203.824219 399.925781 202.335938 400.59375 C 200.847656 401.265625 199.140625 401.601562 197.210938 401.601562 Z M 197.210938 401.601562 " fill-opacity="1" fill-rule="nonzero"/><path fill="#000000" d="M 225.03125 401.601562 C 222.511719 401.601562 220.226562 401.03125 218.179688 399.882812 C 216.132812 398.742188 214.527344 397.113281 213.363281 394.996094 C 212.203125 392.882812 211.625 390.433594 211.625 387.644531 C 211.625 384.898438 212.222656 382.46875 213.417969 380.351562 C 214.609375 378.238281 216.238281 376.617188 218.300781 375.484375 C 220.359375 374.355469 222.671875 373.789062 225.226562 373.789062 C 227.777344 373.789062 230.082031 374.355469 232.144531 375.484375 C 234.203125 376.617188 235.832031 378.230469 237.027344 380.328125 C 238.222656 382.429688 238.820312 384.867188 238.820312 387.644531 C 238.820312 390.433594 238.203125 392.882812 236.972656 394.996094 C 235.75 397.113281 234.089844 398.742188 231.992188 399.882812 C 229.898438 401.03125 227.578125 401.601562 225.03125 401.601562 Z M 225.03125 397.675781 C 226.632812 397.675781 228.136719 397.300781 229.542969 396.550781 C 230.949219 395.792969 232.082031 394.664062 232.953125 393.160156 C 233.816406 391.648438 234.253906 389.8125 234.253906 387.644531 C 234.253906 385.488281 233.828125 383.660156 232.972656 382.15625 C 232.128906 380.648438 231.019531 379.527344 229.640625 378.789062 C 228.265625 378.042969 226.773438 377.671875 225.171875 377.671875 C 223.539062 377.671875 222.042969 378.042969 220.683594 378.789062 C 219.328125 379.527344 218.238281 380.648438 217.417969 382.15625 C 216.601562 383.660156 216.191406 385.488281 216.191406 387.644531 C 216.191406 389.84375 216.589844 391.691406 217.394531 393.203125 C 218.195312 394.710938 219.265625 395.835938 220.605469 396.570312 C 221.953125 397.308594 223.429688 397.675781 225.03125 397.675781 Z M 225.03125 397.675781 " fill-opacity="1" fill-rule="nonzero"/><path fill="#000000" d="M 255.648438 377.921875 L 250 377.921875 L 250 401.164062 L 245.53125 401.164062 L 245.53125 377.921875 L 242.046875 377.921875 L 242.046875 374.238281 L 245.53125 374.238281 L 245.53125 372.324219 C 245.53125 369.304688 246.308594 367.101562 247.859375 365.707031 C 249.414062 364.316406 251.914062 363.617188 255.351562 363.617188 L 255.351562 367.359375 C 253.386719 367.359375 252.003906 367.746094 251.203125 368.519531 C 250.398438 369.285156 250 370.550781 250 372.324219 L 250 374.238281 L 255.648438 374.238281 Z M 255.648438 377.921875 " fill-opacity="1" fill-rule="nonzero"/><path fill="#000000" d="M 266.296875 377.921875 L 266.296875 393.792969 C 266.296875 395.105469 266.574219 396.03125 267.125 396.570312 C 267.679688 397.113281 268.644531 397.378906 270.023438 397.378906 L 273.308594 397.378906 L 273.308594 401.164062 L 269.289062 401.164062 C 266.800781 401.164062 264.929688 400.59375 263.683594 399.445312 C 262.445312 398.296875 261.828125 396.414062 261.828125 393.792969 L 261.828125 377.921875 L 258.34375 377.921875 L 258.34375 374.238281 L 261.828125 374.238281 L 261.828125 367.457031 L 266.296875 367.457031 L 266.296875 374.238281 L 273.308594 374.238281 L 273.308594 377.921875 Z M 266.296875 377.921875 " fill-opacity="1" fill-rule="nonzero"/><path fill="#000000" d="M 314.539062 374.238281 L 306.148438 401.164062 L 301.527344 401.164062 L 295.050781 379.792969 L 288.570312 401.164062 L 283.960938 401.164062 L 275.515625 374.238281 L 280.082031 374.238281 L 286.265625 396.84375 L 292.941406 374.238281 L 297.507812 374.238281 L 304.03125 396.886719 L 310.117188 374.238281 Z M 314.539062 374.238281 " fill-opacity="1" fill-rule="nonzero"/><path fill="#000000" d="M 317.269531 387.601562 C 317.269531 384.855469 317.828125 382.441406 318.941406 380.363281 C 320.054688 378.277344 321.585938 376.664062 323.53125 375.515625 C 325.476562 374.367188 327.640625 373.789062 330.03125 373.789062 C 332.390625 373.789062 334.4375 374.300781 336.171875 375.320312 C 337.902344 376.335938 339.195312 377.613281 340.050781 379.148438 L 340.050781 374.238281 L 344.5625 374.238281 L 344.5625 401.164062 L 340.050781 401.164062 L 340.050781 396.15625 C 339.167969 397.726562 337.847656 399.027344 336.09375 400.058594 C 334.347656 401.085938 332.308594 401.601562 329.988281 401.601562 C 327.597656 401.601562 325.4375 401.015625 323.507812 399.839844 C 321.578125 398.660156 320.054688 397.003906 318.941406 394.875 C 317.828125 392.75 317.269531 390.324219 317.269531 387.601562 Z M 340.050781 387.644531 C 340.050781 385.621094 339.636719 383.855469 338.816406 382.351562 C 338 380.84375 336.894531 379.691406 335.503906 378.886719 C 334.113281 378.078125 332.582031 377.671875 330.914062 377.671875 C 329.246094 377.671875 327.726562 378.066406 326.347656 378.851562 C 324.976562 379.640625 323.882812 380.789062 323.058594 382.296875 C 322.242188 383.800781 321.835938 385.570312 321.835938 387.601562 C 321.835938 389.667969 322.242188 391.460938 323.058594 392.984375 C 323.882812 394.507812 324.976562 395.671875 326.347656 396.472656 C 327.726562 397.277344 329.246094 397.675781 330.914062 397.675781 C 332.582031 397.675781 334.113281 397.277344 335.503906 396.472656 C 336.894531 395.671875 338 394.507812 338.816406 392.984375 C 339.636719 391.460938 340.050781 389.679688 340.050781 387.644531 Z M 340.050781 387.644531 " fill-opacity="1" fill-rule="nonzero"/><path fill="#000000" d="M 356.582031 378.613281 C 357.367188 377.074219 358.488281 375.878906 359.945312 375.023438 C 361.402344 374.171875 363.171875 373.746094 365.265625 373.746094 L 365.265625 378.359375 L 364.085938 378.359375 C 359.082031 378.359375 356.582031 381.082031 356.582031 386.519531 L 356.582031 401.164062 L 352.113281 401.164062 L 352.113281 374.238281 L 356.582031 374.238281 Z M 356.582031 378.613281 " fill-opacity="1" fill-rule="nonzero"/><path fill="#000000" d="M 394.953125 386.671875 C 394.953125 387.519531 394.902344 388.421875 394.808594 389.375 L 373.308594 389.375 C 373.476562 392.03125 374.382812 394.097656 376.03125 395.585938 C 377.683594 397.074219 379.691406 397.816406 382.050781 397.816406 C 383.976562 397.816406 385.589844 397.371094 386.878906 396.472656 C 388.171875 395.570312 389.085938 394.367188 389.609375 392.863281 L 394.417969 392.863281 C 393.695312 395.453125 392.253906 397.554688 390.089844 399.171875 C 387.933594 400.792969 385.253906 401.601562 382.050781 401.601562 C 379.492188 401.601562 377.210938 401.03125 375.199219 399.882812 C 373.1875 398.742188 371.609375 397.113281 370.457031 394.996094 C 369.3125 392.882812 368.742188 390.433594 368.742188 387.644531 C 368.742188 384.867188 369.300781 382.429688 370.414062 380.328125 C 371.527344 378.230469 373.089844 376.617188 375.101562 375.484375 C 377.113281 374.355469 379.425781 373.789062 382.050781 373.789062 C 384.597656 373.789062 386.851562 374.347656 388.8125 375.460938 C 390.777344 376.578125 392.292969 378.113281 393.355469 380.066406 C 394.417969 382.015625 394.953125 384.21875 394.953125 386.671875 Z M 390.34375 385.734375 C 390.34375 384.035156 389.960938 382.570312 389.207031 381.347656 C 388.453125 380.117188 387.429688 379.179688 386.136719 378.535156 C 384.847656 377.894531 383.417969 377.574219 381.851562 377.574219 C 379.59375 377.574219 377.671875 378.296875 376.085938 379.738281 C 374.496094 381.183594 373.589844 383.179688 373.363281 385.734375 Z M 390.34375 385.734375 " fill-opacity="1" fill-rule="nonzero"/><g clip-path="url(#af8f933e20)"><path fill="#4910bc" d="M 306.941406 197.847656 C 314.878906 200.710938 323.441406 202.265625 332.363281 202.265625 C 353.109375 202.265625 371.886719 193.855469 385.460938 180.269531 L 385.460938 180.246094 C 399.042969 166.640625 407.453125 147.84375 407.453125 127.082031 C 407.453125 107.398438 399.890625 89.472656 387.523438 76.078125 C 386.839844 75.355469 386.152344 74.652344 385.453125 73.953125 L 385.433594 73.925781 C 384.496094 72.988281 383.539062 72.066406 382.570312 71.164062 C 369.28125 59.191406 351.679688 51.902344 332.363281 51.902344 C 311.628906 51.902344 292.847656 60.320312 279.261719 73.921875 C 265.671875 87.523438 257.261719 106.328125 257.261719 127.082031 C 257.261719 147.839844 265.671875 166.640625 279.261719 180.246094 C 282.464844 183.453125 285.964844 186.375 289.703125 188.964844 C 286.5 191.039062 283.207031 193.085938 279.835938 195.101562 C 276.953125 192.867188 274.210938 190.453125 271.636719 187.871094 C 256.105469 172.324219 246.480469 150.828125 246.480469 127.082031 C 246.480469 103.355469 256.105469 81.851562 271.636719 66.300781 C 284.101562 53.824219 300.386719 45.164062 318.582031 42.21875 C 314.96875 41.859375 311.304688 41.675781 307.597656 41.675781 C 277.203125 41.675781 249.675781 54.011719 229.761719 73.953125 L 229.742188 73.953125 C 209.832031 93.871094 197.519531 121.429688 197.519531 151.863281 C 197.519531 178.574219 207.007812 203.066406 222.789062 222.125 C 219.019531 223.421875 215.351562 224.570312 211.792969 225.578125 C 202.75 213.820312 195.8125 200.347656 191.558594 185.746094 C 181.898438 194.875 174.5 203.6875 169.976562 211.519531 C 165.390625 219.464844 163.898438 225.996094 166.269531 230.144531 L 166.277344 230.144531 C 170.246094 237.019531 184.121094 237.988281 203.316406 234 C 224.332031 229.632812 250.898438 219.085938 277.992188 203.429688 L 278.015625 203.429688 C 293.421875 194.527344 307.34375 184.910156 319.136719 175.308594 C 331.234375 165.460938 341.046875 155.628906 347.855469 146.625 L 356.445312 153.117188 C 349.160156 162.753906 338.726562 173.21875 325.917969 183.648438 C 320.082031 188.398438 313.730469 193.160156 306.941406 197.847656 M 235.902344 235.46875 C 255.164062 252.03125 280.21875 262.050781 307.605469 262.050781 C 338.007812 262.050781 365.53125 249.726562 385.433594 229.796875 L 385.453125 229.773438 C 405.363281 209.851562 417.675781 182.292969 417.675781 151.863281 C 417.675781 148.148438 417.492188 144.476562 417.132812 140.855469 C 414.199219 159.078125 405.550781 175.386719 393.082031 187.871094 L 393.074219 187.859375 C 377.527344 203.421875 356.050781 213.050781 332.367188 213.050781 C 319.410156 213.050781 307.113281 210.175781 296.097656 205.023438 C 291.984375 207.636719 287.734375 210.214844 283.375 212.730469 L 283.382812 212.742188 C 267.078125 222.164062 250.90625 229.808594 235.902344 235.46875 Z M 366.734375 111.832031 C 374.492188 111.832031 380.777344 118.128906 380.777344 125.894531 C 380.777344 133.660156 374.492188 139.957031 366.734375 139.957031 C 358.976562 139.957031 352.6875 133.660156 352.6875 125.894531 C 352.6875 118.128906 358.976562 111.832031 366.734375 111.832031 Z M 307.605469 30.886719 C 339.324219 30.886719 368.226562 43.152344 389.804688 63.210938 C 390.921875 64.210938 392.007812 65.242188 393.066406 66.304688 L 393.074219 66.292969 C 394.359375 67.574219 395.601562 68.902344 396.796875 70.261719 C 416.460938 91.789062 428.453125 120.441406 428.453125 151.863281 C 428.453125 185.234375 414.929688 215.480469 393.058594 237.382812 L 393.046875 237.390625 L 393.039062 237.402344 C 371.160156 259.296875 340.941406 272.835938 307.605469 272.835938 C 275.320312 272.835938 245.992188 260.15625 224.316406 239.511719 C 217.710938 241.628906 211.40625 243.3125 205.507812 244.539062 C 181.601562 249.511719 163.535156 246.894531 156.980469 235.539062 L 156.980469 235.511719 C 152.492188 227.71875 154.117188 217.496094 160.675781 206.125 C 166.402344 196.210938 176.070312 185.0625 188.726562 173.75 C 187.429688 166.652344 186.746094 159.335938 186.746094 151.859375 C 186.746094 118.480469 200.277344 88.230469 222.15625 66.328125 L 222.148438 66.316406 C 244.011719 44.433594 274.230469 30.886719 307.605469 30.886719 Z M 307.605469 30.886719 " fill-opacity="1" fill-rule="nonzero"/></g></svg>