<svg xmlns="http://www.w3.org/2000/svg" xmlns:xlink="http://www.w3.org/1999/xlink" width="1003" zoomAndPan="magnify" viewBox="0 0 752.25 239.249991" height="319" preserveAspectRatio="xMidYMid meet" version="1.0"><defs><clipPath id="31b3757def"><path d="M 44.292969 0 L 750.699219 0 L 750.699219 219.8125 L 44.292969 219.8125 Z M 44.292969 0 " clip-rule="nonzero"/></clipPath><clipPath id="53e2374a6b"><path d="M 45.585938 39.308594 L 223.632812 39.308594 L 223.632812 196.230469 L 45.585938 196.230469 Z M 45.585938 39.308594 " clip-rule="nonzero"/></clipPath></defs><g clip-path="url(#31b3757def)"></g><path fill="#ffffff" d="M 264.402344 90.746094 C 264.402344 85.480469 265.476562 80.882812 267.628906 76.957031 C 269.777344 73.023438 272.773438 70 276.613281 67.890625 C 280.453125 65.773438 284.851562 64.710938 289.804688 64.710938 C 296.164062 64.710938 301.46875 66.375 305.730469 69.699219 C 309.992188 73.027344 312.789062 77.714844 314.121094 83.757812 L 297.609375 83.757812 C 296.214844 79.886719 293.523438 77.949219 289.535156 77.949219 C 286.691406 77.949219 284.421875 79.058594 282.722656 81.269531 C 281.03125 83.472656 280.1875 86.632812 280.1875 90.746094 C 280.1875 94.859375 281.03125 98.023438 282.722656 100.234375 C 284.421875 102.4375 286.691406 103.539062 289.535156 103.539062 C 293.523438 103.539062 296.214844 101.605469 297.609375 97.734375 L 314.121094 97.734375 C 312.789062 103.664062 309.976562 108.320312 305.683594 111.707031 C 301.390625 115.089844 296.097656 116.78125 289.804688 116.78125 C 284.851562 116.78125 280.453125 115.726562 276.613281 113.613281 C 272.773438 111.496094 269.777344 108.46875 267.628906 104.535156 C 265.476562 100.601562 264.402344 96.003906 264.402344 90.746094 Z M 264.402344 90.746094 " fill-opacity="1" fill-rule="nonzero"/><path fill="#ffffff" d="M 345.417969 116.78125 C 340.460938 116.78125 336 115.726562 332.039062 113.613281 C 328.078125 111.496094 324.960938 108.46875 322.6875 104.535156 C 320.421875 100.601562 319.289062 96.003906 319.289062 90.746094 C 319.289062 85.542969 320.4375 80.960938 322.734375 77.003906 C 325.03125 73.039062 328.175781 70 332.164062 67.890625 C 336.160156 65.773438 340.640625 64.710938 345.601562 64.710938 C 350.5625 64.710938 355.039062 65.773438 359.03125 67.890625 C 363.015625 70 366.160156 73.039062 368.460938 77.003906 C 370.765625 80.960938 371.917969 85.542969 371.917969 90.746094 C 371.917969 95.953125 370.753906 100.535156 368.425781 104.5 C 366.09375 108.457031 362.914062 111.496094 358.890625 113.613281 C 354.871094 115.726562 350.375 116.78125 345.417969 116.78125 Z M 345.417969 103.355469 C 348.382812 103.355469 350.910156 102.265625 353 100.09375 C 355.085938 97.914062 356.132812 94.796875 356.132812 90.746094 C 356.132812 86.695312 355.113281 83.582031 353.082031 81.410156 C 351.054688 79.230469 348.5625 78.136719 345.601562 78.136719 C 342.578125 78.136719 340.066406 79.210938 338.066406 81.363281 C 336.070312 83.507812 335.074219 86.632812 335.074219 90.746094 C 335.074219 94.796875 336.058594 97.914062 338.019531 100.09375 C 339.988281 102.265625 342.453125 103.355469 345.417969 103.355469 Z M 345.417969 103.355469 " fill-opacity="1" fill-rule="nonzero"/><path fill="#ffffff" d="M 395.679688 73.871094 C 397.496094 71.089844 399.761719 68.898438 402.480469 67.292969 C 405.207031 65.691406 408.234375 64.886719 411.5625 64.886719 L 411.5625 81.304688 L 407.296875 81.304688 C 403.421875 81.304688 400.519531 82.140625 398.578125 83.804688 C 396.644531 85.464844 395.679688 88.382812 395.679688 92.558594 L 395.679688 116.054688 L 380.164062 116.054688 L 380.164062 65.4375 L 395.679688 65.4375 Z M 395.679688 73.871094 " fill-opacity="1" fill-rule="nonzero"/><path fill="#ffffff" d="M 466.714844 89.925781 C 466.714844 91.375 466.625 92.890625 466.445312 94.460938 L 431.332031 94.460938 C 431.570312 97.609375 432.585938 100.019531 434.371094 101.683594 C 436.152344 103.34375 438.34375 104.171875 440.949219 104.171875 C 444.820312 104.171875 447.507812 102.542969 449.023438 99.277344 L 465.535156 99.277344 C 464.691406 102.601562 463.164062 105.597656 460.953125 108.261719 C 458.746094 110.917969 455.980469 113.003906 452.65625 114.511719 C 449.328125 116.027344 445.609375 116.78125 441.496094 116.78125 C 436.535156 116.78125 432.117188 115.726562 428.246094 113.613281 C 424.375 111.496094 421.347656 108.46875 419.167969 104.535156 C 416.992188 100.601562 415.90625 96.003906 415.90625 90.746094 C 415.90625 85.480469 416.980469 80.882812 419.132812 76.957031 C 421.28125 73.023438 424.289062 70 428.152344 67.890625 C 432.023438 65.773438 436.472656 64.710938 441.496094 64.710938 C 446.394531 64.710938 450.753906 65.738281 454.5625 67.796875 C 458.371094 69.851562 461.34375 72.785156 463.488281 76.59375 C 465.640625 80.402344 466.714844 84.851562 466.714844 89.925781 Z M 450.84375 85.847656 C 450.84375 83.183594 449.9375 81.066406 448.121094 79.492188 C 446.304688 77.921875 444.035156 77.132812 441.3125 77.132812 C 438.707031 77.132812 436.515625 77.890625 434.730469 79.398438 C 432.945312 80.914062 431.84375 83.0625 431.425781 85.847656 Z M 450.84375 85.847656 " fill-opacity="1" fill-rule="nonzero"/><path fill="#ffffff" d="M 517.152344 116.78125 C 512.199219 116.78125 507.738281 115.726562 503.773438 113.613281 C 499.816406 111.496094 496.699219 108.46875 494.425781 104.535156 C 492.160156 100.601562 491.023438 96.003906 491.023438 90.746094 C 491.023438 85.542969 492.171875 80.960938 494.472656 77.003906 C 496.769531 73.039062 499.910156 70 503.902344 67.890625 C 507.898438 65.773438 512.375 64.710938 517.339844 64.710938 C 522.300781 64.710938 526.773438 65.773438 530.765625 67.890625 C 534.753906 70 537.894531 73.039062 540.195312 77.003906 C 542.5 80.960938 543.652344 85.542969 543.652344 90.746094 C 543.652344 95.953125 542.488281 100.535156 540.160156 104.5 C 537.828125 108.457031 534.652344 111.496094 530.625 113.613281 C 526.605469 115.726562 522.113281 116.78125 517.152344 116.78125 Z M 517.152344 103.355469 C 520.121094 103.355469 522.648438 102.265625 524.734375 100.09375 C 526.820312 97.914062 527.867188 94.796875 527.867188 90.746094 C 527.867188 86.695312 526.851562 83.582031 524.816406 81.410156 C 522.789062 79.230469 520.296875 78.136719 517.339844 78.136719 C 514.316406 78.136719 511.804688 79.210938 509.800781 81.363281 C 507.808594 83.507812 506.8125 86.632812 506.8125 90.746094 C 506.8125 94.796875 507.792969 97.914062 509.757812 100.09375 C 511.726562 102.265625 514.191406 103.355469 517.152344 103.355469 Z M 517.152344 103.355469 " fill-opacity="1" fill-rule="nonzero"/><path fill="#ffffff" d="M 567.417969 73.871094 C 569.230469 71.089844 571.496094 68.898438 574.21875 67.292969 C 576.941406 65.691406 579.96875 64.886719 583.296875 64.886719 L 583.296875 81.304688 L 579.03125 81.304688 C 575.160156 81.304688 572.253906 82.140625 570.316406 83.804688 C 568.382812 85.464844 567.417969 88.382812 567.417969 92.558594 L 567.417969 116.054688 L 551.898438 116.054688 L 551.898438 65.4375 L 567.417969 65.4375 Z M 567.417969 73.871094 " fill-opacity="1" fill-rule="nonzero"/><path fill="#ffffff" d="M 606.246094 72.597656 C 607.695312 70.238281 609.777344 68.332031 612.496094 66.882812 C 615.222656 65.4375 618.339844 64.710938 621.84375 64.710938 C 626.019531 64.710938 629.804688 65.773438 633.191406 67.890625 C 636.582031 70 639.257812 73.023438 641.21875 76.957031 C 643.183594 80.882812 644.164062 85.449219 644.164062 90.652344 C 644.164062 95.859375 643.183594 100.441406 641.21875 104.40625 C 639.257812 108.363281 636.582031 111.417969 633.191406 113.566406 C 629.804688 115.710938 626.019531 116.78125 621.84375 116.78125 C 618.277344 116.78125 615.160156 116.070312 612.496094 114.652344 C 609.839844 113.226562 607.757812 111.335938 606.246094 108.972656 L 606.246094 116.054688 L 590.726562 116.054688 L 590.726562 48.925781 L 606.246094 48.925781 Z M 628.378906 90.652344 C 628.378906 86.78125 627.300781 83.742188 625.152344 81.539062 C 623.007812 79.328125 620.363281 78.21875 617.21875 78.21875 C 614.132812 78.21875 611.515625 79.339844 609.367188 81.585938 C 607.222656 83.820312 606.152344 86.875 606.152344 90.746094 C 606.152344 94.617188 607.222656 97.671875 609.367188 99.90625 C 611.515625 102.144531 614.132812 103.261719 617.21875 103.261719 C 620.304688 103.261719 622.933594 102.125 625.105469 99.859375 C 627.285156 97.59375 628.378906 94.527344 628.378906 90.652344 Z M 628.378906 90.652344 " fill-opacity="1" fill-rule="nonzero"/><path fill="#ffffff" d="M 660.132812 60.164062 C 657.414062 60.164062 655.191406 59.367188 653.460938 57.769531 C 651.738281 56.167969 650.878906 54.183594 650.878906 51.824219 C 650.878906 49.410156 651.738281 47.398438 653.460938 45.792969 C 655.191406 44.1875 657.414062 43.386719 660.132812 43.386719 C 662.796875 43.386719 664.988281 44.1875 666.710938 45.792969 C 668.433594 47.398438 669.292969 49.410156 669.292969 51.824219 C 669.292969 54.183594 668.433594 56.167969 666.710938 57.769531 C 664.988281 59.367188 662.796875 60.164062 660.132812 60.164062 Z M 667.847656 65.4375 L 667.847656 116.054688 L 652.328125 116.054688 L 652.328125 65.4375 Z M 667.847656 65.4375 " fill-opacity="1" fill-rule="nonzero"/><path fill="#ffffff" d="M 707.308594 102.898438 L 707.308594 116.054688 L 699.421875 116.054688 C 693.789062 116.054688 689.398438 114.683594 686.253906 111.929688 C 683.113281 109.171875 681.542969 104.683594 681.542969 98.457031 L 681.542969 78.3125 L 675.375 78.3125 L 675.375 65.4375 L 681.542969 65.4375 L 681.542969 53.097656 L 697.0625 53.097656 L 697.0625 65.4375 L 707.21875 65.4375 L 707.21875 78.3125 L 697.0625 78.3125 L 697.0625 98.632812 C 697.0625 100.144531 697.425781 101.234375 698.148438 101.90625 C 698.875 102.566406 700.082031 102.898438 701.773438 102.898438 Z M 707.308594 102.898438 " fill-opacity="1" fill-rule="nonzero"/><path fill="#ffffff" d="M 276.097656 179.6875 C 273.894531 179.6875 271.914062 179.3125 270.164062 178.566406 C 268.410156 177.8125 267.027344 176.757812 266.015625 175.410156 C 265 174.0625 264.441406 172.511719 264.332031 170.757812 L 269.273438 170.757812 C 269.414062 172.203125 270.085938 173.375 271.296875 174.289062 C 272.503906 175.195312 274.089844 175.644531 276.050781 175.644531 C 277.867188 175.644531 279.300781 175.242188 280.351562 174.441406 C 281.402344 173.640625 281.929688 172.621094 281.929688 171.390625 C 281.929688 170.128906 281.367188 169.191406 280.246094 168.585938 C 279.125 167.972656 277.390625 167.367188 275.046875 166.773438 C 272.910156 166.214844 271.171875 165.648438 269.824219 165.070312 C 268.472656 164.484375 267.316406 163.625 266.355469 162.484375 C 265.394531 161.351562 264.917969 159.855469 264.917969 158 C 264.917969 156.527344 265.351562 155.179688 266.226562 153.957031 C 267.09375 152.734375 268.339844 151.765625 269.953125 151.046875 C 271.566406 150.320312 273.402344 149.960938 275.46875 149.960938 C 278.652344 149.960938 281.230469 150.765625 283.191406 152.378906 C 285.15625 153.992188 286.207031 156.195312 286.347656 158.992188 L 281.566406 158.992188 C 281.457031 157.492188 280.847656 156.28125 279.746094 155.371094 C 278.644531 154.457031 277.167969 154.003906 275.316406 154.003906 C 273.59375 154.003906 272.226562 154.375 271.214844 155.113281 C 270.199219 155.847656 269.695312 156.808594 269.695312 158 C 269.695312 158.941406 270 159.722656 270.605469 160.335938 C 271.21875 160.953125 271.992188 161.441406 272.921875 161.808594 C 273.847656 162.175781 275.136719 162.589844 276.789062 163.046875 C 278.851562 163.601562 280.53125 164.152344 281.824219 164.695312 C 283.117188 165.242188 284.226562 166.054688 285.15625 167.136719 C 286.089844 168.21875 286.570312 169.636719 286.605469 171.390625 C 286.605469 172.972656 286.164062 174.394531 285.285156 175.65625 C 284.410156 176.910156 283.175781 177.894531 281.578125 178.613281 C 279.988281 179.328125 278.160156 179.6875 276.097656 179.6875 Z M 276.097656 179.6875 " fill-opacity="1" fill-rule="nonzero"/><path fill="#ffffff" d="M 305.875 179.6875 C 303.179688 179.6875 300.738281 179.074219 298.550781 177.851562 C 296.359375 176.628906 294.640625 174.890625 293.398438 172.628906 C 292.160156 170.371094 291.539062 167.753906 291.539062 164.777344 C 291.539062 161.832031 292.175781 159.230469 293.457031 156.96875 C 294.730469 154.710938 296.472656 152.980469 298.679688 151.769531 C 300.890625 150.5625 303.359375 149.960938 306.085938 149.960938 C 308.820312 149.960938 311.289062 150.5625 313.496094 151.769531 C 315.699219 152.980469 317.4375 154.703125 318.71875 156.949219 C 320.003906 159.191406 320.648438 161.800781 320.648438 164.777344 C 320.648438 167.753906 319.988281 170.371094 318.671875 172.628906 C 317.355469 174.890625 315.574219 176.628906 313.332031 177.851562 C 311.09375 179.074219 308.609375 179.6875 305.875 179.6875 Z M 305.875 175.492188 C 307.597656 175.492188 309.210938 175.089844 310.714844 174.289062 C 312.214844 173.480469 313.429688 172.273438 314.359375 170.664062 C 315.285156 169.054688 315.75 167.089844 315.75 164.777344 C 315.75 162.460938 315.296875 160.503906 314.382812 158.898438 C 313.476562 157.285156 312.292969 156.089844 310.820312 155.300781 C 309.347656 154.503906 307.753906 154.109375 306.039062 154.109375 C 304.289062 154.109375 302.679688 154.503906 301.226562 155.300781 C 299.777344 156.089844 298.613281 157.285156 297.730469 158.898438 C 296.859375 160.503906 296.421875 162.460938 296.421875 164.777344 C 296.421875 167.121094 296.851562 169.101562 297.710938 170.710938 C 298.574219 172.324219 299.722656 173.527344 301.15625 174.3125 C 302.585938 175.101562 304.160156 175.492188 305.875 175.492188 Z M 305.875 175.492188 " fill-opacity="1" fill-rule="nonzero"/><path fill="#ffffff" d="M 338.652344 154.375 L 332.621094 154.375 L 332.621094 179.21875 L 327.84375 179.21875 L 327.84375 154.375 L 324.101562 154.375 L 324.101562 150.4375 L 327.84375 150.4375 L 327.84375 148.382812 C 327.84375 145.164062 328.671875 142.8125 330.332031 141.324219 C 331.996094 139.835938 334.667969 139.09375 338.347656 139.09375 L 338.347656 143.078125 C 336.242188 143.078125 334.761719 143.492188 333.90625 144.316406 C 333.046875 145.140625 332.621094 146.496094 332.621094 148.382812 L 332.621094 150.4375 L 338.652344 150.4375 Z M 338.652344 154.375 " fill-opacity="1" fill-rule="nonzero"/><path fill="#ffffff" d="M 350.054688 154.375 L 350.054688 171.34375 C 350.054688 172.746094 350.347656 173.734375 350.941406 174.3125 C 351.539062 174.890625 352.578125 175.175781 354.050781 175.175781 L 357.566406 175.175781 L 357.566406 179.21875 L 353.253906 179.21875 C 350.597656 179.21875 348.605469 178.609375 347.273438 177.382812 C 345.941406 176.15625 345.273438 174.140625 345.273438 171.34375 L 345.273438 154.375 L 341.546875 154.375 L 341.546875 150.4375 L 345.273438 150.4375 L 345.273438 143.183594 L 350.054688 143.183594 L 350.054688 150.4375 L 357.566406 150.4375 L 357.566406 154.375 Z M 350.054688 154.375 " fill-opacity="1" fill-rule="nonzero"/><path fill="#ffffff" d="M 401.679688 150.4375 L 392.707031 179.21875 L 387.761719 179.21875 L 380.835938 156.375 L 373.90625 179.21875 L 368.960938 179.21875 L 359.929688 150.4375 L 364.8125 150.4375 L 371.425781 174.589844 L 378.578125 150.4375 L 383.464844 150.4375 L 390.449219 174.648438 L 396.960938 150.4375 Z M 401.679688 150.4375 " fill-opacity="1" fill-rule="nonzero"/><path fill="#ffffff" d="M 404.625 164.71875 C 404.625 161.78125 405.21875 159.203125 406.410156 156.980469 C 407.601562 154.757812 409.238281 153.03125 411.320312 151.804688 C 413.40625 150.574219 415.726562 149.960938 418.285156 149.960938 C 420.808594 149.960938 422.996094 150.507812 424.851562 151.59375 C 426.703125 152.679688 428.085938 154.042969 429 155.683594 L 429 150.4375 L 433.835938 150.4375 L 433.835938 179.21875 L 429 179.21875 L 429 173.867188 C 428.054688 175.542969 426.644531 176.933594 424.769531 178.039062 C 422.898438 179.136719 420.714844 179.6875 418.226562 179.6875 C 415.667969 179.6875 413.359375 179.0625 411.296875 177.804688 C 409.230469 176.542969 407.601562 174.777344 406.410156 172.5 C 405.21875 170.21875 404.625 167.625 404.625 164.71875 Z M 429 164.777344 C 429 162.601562 428.558594 160.714844 427.679688 159.109375 C 426.804688 157.496094 425.625 156.265625 424.136719 155.40625 C 422.648438 154.539062 421.011719 154.109375 419.230469 154.109375 C 417.445312 154.109375 415.816406 154.527344 414.34375 155.371094 C 412.875 156.210938 411.695312 157.4375 410.816406 159.050781 C 409.941406 160.664062 409.507812 162.554688 409.507812 164.71875 C 409.507812 166.933594 409.941406 168.851562 410.816406 170.480469 C 411.695312 172.109375 412.875 173.351562 414.34375 174.207031 C 415.816406 175.066406 417.445312 175.492188 419.230469 175.492188 C 421.011719 175.492188 422.648438 175.066406 424.136719 174.207031 C 425.625 173.351562 426.804688 172.109375 427.679688 170.480469 C 428.558594 168.851562 429 166.949219 429 164.777344 Z M 429 164.777344 " fill-opacity="1" fill-rule="nonzero"/><path fill="#ffffff" d="M 446.695312 155.113281 C 447.539062 153.472656 448.734375 152.191406 450.296875 151.28125 C 451.851562 150.367188 453.753906 149.914062 455.996094 149.914062 L 455.996094 154.84375 L 454.734375 154.84375 C 449.375 154.84375 446.695312 157.75 446.695312 163.5625 L 446.695312 179.21875 L 441.917969 179.21875 L 441.917969 150.4375 L 446.695312 150.4375 Z M 446.695312 155.113281 " fill-opacity="1" fill-rule="nonzero"/><path fill="#ffffff" d="M 487.777344 163.726562 C 487.777344 164.636719 487.722656 165.601562 487.613281 166.609375 L 464.605469 166.609375 C 464.785156 169.449219 465.757812 171.664062 467.527344 173.257812 C 469.292969 174.847656 471.433594 175.644531 473.953125 175.644531 C 476.023438 175.644531 477.75 175.164062 479.128906 174.207031 C 480.515625 173.242188 481.492188 171.949219 482.050781 170.339844 L 487.191406 170.339844 C 486.421875 173.105469 484.878906 175.355469 482.566406 177.09375 C 480.257812 178.820312 477.390625 179.6875 473.953125 179.6875 C 471.226562 179.6875 468.78125 179.074219 466.625 177.851562 C 464.476562 176.628906 462.785156 174.890625 461.554688 172.628906 C 460.332031 170.371094 459.722656 167.753906 459.722656 164.777344 C 459.722656 161.800781 460.316406 159.191406 461.507812 156.949219 C 462.699219 154.703125 464.371094 152.980469 466.523438 151.769531 C 468.675781 150.5625 471.15625 149.960938 473.953125 149.960938 C 476.6875 149.960938 479.101562 150.554688 481.199219 151.746094 C 483.300781 152.9375 484.917969 154.582031 486.058594 156.667969 C 487.203125 158.746094 487.777344 161.101562 487.777344 163.726562 Z M 482.835938 162.730469 C 482.835938 160.910156 482.429688 159.34375 481.617188 158.035156 C 480.816406 156.71875 479.71875 155.71875 478.335938 155.03125 C 476.957031 154.347656 475.425781 154.003906 473.742188 154.003906 C 471.328125 154.003906 469.269531 154.773438 467.574219 156.316406 C 465.875 157.859375 464.902344 159.996094 464.664062 162.730469 Z M 482.835938 162.730469 " fill-opacity="1" fill-rule="nonzero"/><g clip-path="url(#53e2374a6b)"><path fill="#ffffff" d="M 144.742188 147.699219 C 149.902344 149.558594 155.46875 150.570312 161.261719 150.570312 C 174.746094 150.570312 186.953125 145.109375 195.769531 136.285156 L 195.769531 136.273438 C 204.597656 127.441406 210.066406 115.234375 210.066406 101.757812 C 210.066406 88.980469 205.152344 77.339844 197.113281 68.644531 C 196.671875 68.175781 196.222656 67.71875 195.769531 67.261719 L 195.753906 67.25 C 195.144531 66.640625 194.523438 66.042969 193.894531 65.453125 C 185.257812 57.679688 173.816406 52.949219 161.261719 52.949219 C 147.785156 52.949219 135.582031 58.414062 126.75 67.246094 C 117.921875 76.074219 112.453125 88.285156 112.453125 101.757812 C 112.453125 115.234375 117.921875 127.441406 126.75 136.273438 C 128.835938 138.355469 131.109375 140.25 133.539062 141.9375 C 131.457031 143.28125 129.320312 144.609375 127.128906 145.917969 C 125.253906 144.464844 123.46875 142.898438 121.800781 141.226562 C 111.703125 131.128906 105.449219 117.171875 105.449219 101.757812 C 105.449219 86.355469 111.703125 72.394531 121.800781 62.296875 C 129.898438 54.195312 140.484375 48.574219 152.304688 46.664062 C 149.960938 46.429688 147.578125 46.308594 145.167969 46.308594 C 125.414062 46.308594 107.527344 54.320312 94.582031 67.261719 L 94.570312 67.261719 C 81.632812 80.199219 73.628906 98.089844 73.628906 117.84375 C 73.628906 135.1875 79.792969 151.089844 90.050781 163.464844 C 87.601562 164.304688 85.214844 165.050781 82.90625 165.707031 C 77.027344 158.070312 72.519531 149.324219 69.753906 139.84375 C 63.472656 145.769531 58.667969 151.492188 55.730469 156.578125 C 52.746094 161.738281 51.777344 165.976562 53.320312 168.671875 L 53.324219 168.664062 C 55.90625 173.132812 64.921875 173.761719 77.394531 171.171875 C 91.054688 168.335938 108.320312 161.488281 125.929688 151.324219 L 125.945312 151.324219 C 135.957031 145.546875 145.003906 139.300781 152.671875 133.066406 C 160.53125 126.671875 166.910156 120.292969 171.332031 114.445312 L 176.914062 118.660156 C 172.183594 124.917969 165.398438 131.710938 157.078125 138.480469 C 153.28125 141.566406 149.152344 144.660156 144.742188 147.699219 M 98.574219 172.125 C 111.089844 182.878906 127.375 189.382812 145.171875 189.382812 C 164.933594 189.382812 182.820312 181.382812 195.753906 168.445312 L 195.769531 168.425781 C 208.710938 155.492188 216.707031 137.605469 216.707031 117.84375 C 216.707031 115.433594 216.589844 113.050781 216.359375 110.699219 C 214.449219 122.53125 208.828125 133.121094 200.726562 141.222656 L 200.71875 141.21875 C 190.617188 151.320312 176.660156 157.570312 161.269531 157.570312 C 152.84375 157.570312 144.855469 155.703125 137.695312 152.363281 C 135.019531 154.058594 132.261719 155.726562 129.429688 157.363281 L 129.433594 157.371094 C 118.835938 163.488281 108.328125 168.453125 98.574219 172.125 Z M 183.601562 91.855469 C 188.644531 91.855469 192.730469 95.945312 192.730469 100.984375 C 192.730469 106.027344 188.644531 110.113281 183.601562 110.113281 C 178.558594 110.113281 174.472656 106.027344 174.472656 100.984375 C 174.472656 95.945312 178.558594 91.855469 183.601562 91.855469 Z M 145.171875 39.308594 C 165.789062 39.308594 184.574219 47.265625 198.597656 60.289062 C 199.320312 60.941406 200.027344 61.609375 200.71875 62.300781 L 200.722656 62.292969 C 201.554688 63.125 202.363281 63.984375 203.140625 64.871094 C 215.917969 78.847656 223.714844 97.445312 223.714844 117.84375 C 223.714844 139.511719 214.921875 159.148438 200.710938 173.367188 L 200.707031 173.375 L 200.695312 173.378906 C 186.480469 187.59375 166.839844 196.386719 145.175781 196.386719 C 124.191406 196.386719 105.128906 188.152344 91.042969 174.75 C 86.75 176.125 82.65625 177.21875 78.820312 178.015625 C 63.285156 181.242188 51.542969 179.542969 47.28125 172.171875 L 47.28125 172.152344 C 44.367188 167.09375 45.421875 160.457031 49.683594 153.074219 C 53.40625 146.636719 59.691406 139.402344 67.914062 132.058594 C 67.070312 127.445312 66.628906 122.695312 66.628906 117.84375 C 66.628906 96.175781 75.421875 76.535156 89.640625 62.316406 L 89.636719 62.308594 C 103.84375 48.101562 123.480469 39.308594 145.171875 39.308594 Z M 145.171875 39.308594 " fill-opacity="1" fill-rule="nonzero"/></g></svg>